<svg width="223" height="197" viewBox="0 0 223 197" fill="none" xmlns="http://www.w3.org/2000/svg">
<g filter="url(#filter0_d_182_2901)">
<path d="M189.036 138.998C203.842 110.966 197.686 73.2852 171.734 47.3329C145.699 21.2975 108.018 15.1421 79.9862 30.0314L77.9899 27.9519L64.5147 41.4271C36.483 69.4589 39.0616 117.454 70.3374 148.73C101.53 179.922 149.525 182.501 177.557 154.552L191.032 141.077L189.036 138.998Z" fill="url(#paint0_linear_182_2901)"/>
<path d="M191.033 141.077C163.084 169.026 115.006 166.447 83.8134 135.171C52.6208 103.979 49.959 55.9836 77.9908 27.9518C105.939 0.00324821 154.018 2.58184 185.21 33.7745C216.403 65.0503 219.065 113.045 191.033 141.077Z" fill="url(#paint1_linear_182_2901)"/>
<path d="M77.9904 34.6894C105.939 6.74086 154.017 9.31945 185.21 40.5952C201.097 56.3995 209.499 76.6123 210.33 96.3261C211.412 74.616 202.927 51.4919 185.21 33.7745C154.017 2.58184 105.939 0.00324821 77.9904 27.9518C64.1825 41.7598 57.8608 60.309 58.6926 79.3573C59.4412 62.7212 65.8461 46.8338 77.9904 34.6894Z" fill="url(#paint2_linear_182_2901)"/>
<path d="M85.6434 133.425C54.7003 102.481 51.8722 55.2351 78.9058 27.1201C78.5731 27.3974 78.2681 27.6747 77.9908 27.9519C49.959 55.9837 52.6208 103.979 83.8134 135.171C115.006 166.447 163.084 169.026 191.033 141.077C191.366 140.744 191.671 140.412 191.948 140.079C163.833 167.196 116.503 164.284 85.6434 133.425Z" fill="url(#paint3_linear_182_2901)"/>
<path fill-rule="evenodd" clip-rule="evenodd" d="M126.235 8.57087C146.947 8.57087 168.49 17.0553 185.21 33.7745C216.402 65.0503 219.064 113.045 191.032 141.077L177.557 154.552C164.581 167.528 147.279 173.933 129.312 173.933C108.601 173.933 87.0569 165.449 70.3376 148.73C39.0618 117.454 36.4832 69.4589 64.515 41.4271L77.9902 27.9519C90.9663 14.9757 108.268 8.57087 126.235 8.57087ZM126.235 6.49136C107.103 6.49136 89.3859 13.6449 76.4929 26.5378L63.0177 40.013C49.0434 53.9873 41.9731 73.1188 43.1377 93.9971C44.3022 114.709 53.3688 134.672 68.8403 150.144C85.31 166.613 107.353 176.013 129.312 176.013C148.444 176.013 166.161 168.859 179.054 155.966L192.529 142.491C221.31 113.711 218.648 64.3017 186.707 32.3604C170.237 15.8907 148.194 6.49136 126.235 6.49136Z" fill="#AD5E00"/>
<path d="M178.971 128.933C156.929 150.976 119.248 148.896 94.7097 124.358C70.1715 99.8197 68.092 62.0558 90.0516 40.0962C112.094 18.0535 149.775 20.133 174.313 44.6712C198.935 69.2093 200.931 106.973 178.971 128.933Z" fill="#BA7625"/>
<path d="M169.156 49.8283C192.78 73.3683 195.608 109.053 176.31 131.345C177.197 130.569 178.084 129.765 178.972 128.933C200.931 106.973 198.935 69.2093 174.314 44.6712C149.775 20.133 112.095 18.0535 90.0518 40.0962C89.22 40.928 88.416 41.7875 87.6396 42.6748C109.932 23.4602 145.616 26.2883 169.156 49.8283Z" fill="#AD5E00"/>
<path d="M161.836 57.2314C143.952 39.3476 117.334 36.3531 99.4507 49.2461L99.0348 48.8302L94.3767 53.4883C76.8256 71.1225 78.4061 101.317 98.0366 120.947C117.667 140.578 147.862 142.242 165.496 124.607L170.154 119.949L169.821 119.533C182.631 101.65 179.637 75.032 161.836 57.2314Z" fill="#AD5E00"/>
<path d="M170.154 119.949C152.603 137.584 122.409 135.92 102.778 116.289C83.1474 96.6589 81.4838 66.4645 99.0348 48.8302C116.669 31.2792 146.864 32.8596 166.494 52.4901C186.125 72.1207 187.788 102.315 170.154 119.949Z" fill="url(#paint4_linear_182_2901)"/>
<path d="M99.0348 53.5715C116.669 35.9372 146.863 37.6009 166.494 57.2314C176.392 67.0467 181.716 79.6069 182.298 91.9176C182.964 78.1929 177.64 63.6363 166.494 52.4901C146.863 32.8596 116.669 31.2792 99.0348 48.8302C90.3008 57.5642 86.3082 69.4589 86.9736 81.6032C87.4727 71.1225 91.4653 61.1409 99.0348 53.5715Z" fill="url(#paint5_linear_182_2901)"/>
<path d="M114.091 60.1427L133.139 67.9616L147.862 57.5641L149.193 77.1115L166.079 89.7548L147.946 93.9971L143.703 112.13L131.06 95.2448L111.596 93.8307L121.91 79.191L114.091 60.1427Z" fill="#BA7625"/>
<path d="M131.808 70.7897L146.448 60.3922L147.862 79.9396L162.169 90.6698L166.079 89.7548L149.193 77.1115L147.862 57.5641L133.139 67.9616L114.091 60.1427L115.838 64.2185L131.808 70.7897Z" fill="#AD5E00"/>
<path d="M56.2811 148.397L56.697 154.719C56.7802 155.883 57.4456 156.965 58.4437 157.547L63.9337 160.708C66.4291 162.205 66.1795 165.948 63.5178 167.029L57.6119 169.442C56.5306 169.858 55.782 170.856 55.5324 171.937L54.1184 178.176C53.5361 181.004 49.8762 181.919 47.963 179.673L43.8872 174.848C43.1386 173.933 41.9741 173.517 40.8096 173.601L34.571 174.183C31.6597 174.516 29.6634 171.355 31.1606 168.859L34.571 163.453C35.1533 162.454 35.2364 161.207 34.7374 160.125L32.2419 154.386C31.0774 151.641 33.4897 148.813 36.3178 149.478L42.4732 151.059C43.6377 151.308 44.8022 150.976 45.634 150.227L50.3753 145.985C52.6212 144.072 56.0315 145.486 56.2811 148.397Z" fill="url(#paint6_linear_182_2901)"/>
<path fill-rule="evenodd" clip-rule="evenodd" d="M58.3603 148.231L58.7762 154.552C58.8594 155.051 59.1089 155.467 59.5248 155.717L65.0147 158.961C66.8447 160.042 67.926 162.038 67.7596 164.201C67.5933 166.281 66.2624 168.111 64.2661 168.942L58.3603 171.355C57.9444 171.521 57.6116 171.937 57.5285 172.436L56.1976 178.591C55.6153 181.17 53.3694 183 50.7077 183C49.0441 183 47.4636 182.251 46.3823 181.004L42.3065 176.179C42.0569 175.846 41.641 175.68 41.0588 175.68L34.737 176.262C34.5707 176.262 34.3766 176.262 34.1548 176.262C32.1585 176.262 30.3285 175.181 29.3303 173.434C28.3322 171.604 28.3322 169.525 29.4135 167.778L32.7407 162.371C33.0735 161.955 33.0735 161.456 32.9071 160.957L30.3285 155.218C29.5799 153.471 29.7462 151.475 30.7444 149.894C31.8257 148.314 33.5725 147.316 35.4857 147.316C35.9293 147.316 36.3729 147.371 36.8165 147.482L42.9719 148.979C43.0828 149.035 43.1937 149.062 43.3047 149.062C43.6374 149.062 44.0532 148.896 44.3028 148.73L49.0441 144.487C50.0422 143.572 51.3731 143.073 52.704 143.073C55.6985 143.073 58.1107 145.319 58.3603 148.231ZM50.375 145.985L45.6337 150.227C44.9683 150.809 44.1365 151.142 43.3047 151.142C43.0274 151.142 42.7501 151.114 42.4729 151.059L36.3175 149.478C36.0402 149.423 35.763 149.395 35.4857 149.395C32.9903 149.395 31.1603 151.974 32.2416 154.386L34.737 160.125C35.2361 161.207 35.153 162.454 34.5707 163.453L31.1603 168.859C29.7462 171.188 31.493 174.266 34.1548 174.266C34.2657 174.266 34.4044 174.238 34.5707 174.183L40.8092 173.601C40.9756 173.601 41.1142 173.601 41.2251 173.601C42.2233 173.601 43.2214 174.016 43.8869 174.848L47.9627 179.673C48.7114 180.505 49.7095 180.92 50.7077 180.92C52.2049 180.92 53.7854 179.922 54.1181 178.175L55.5321 171.937C55.7817 170.856 56.5303 169.857 57.6116 169.442L63.5175 167.029C66.1792 165.948 66.4288 162.205 63.9334 160.708L58.4434 157.547C57.4453 156.964 56.7798 155.883 56.6967 154.719L56.2808 148.397C56.1144 146.401 54.4508 145.153 52.704 145.153C51.9554 145.153 51.1236 145.402 50.375 145.985Z" fill="#AD5E00"/>
<path opacity="0.5" d="M47.7129 156.465C47.2138 157.713 45.467 158.212 43.8034 157.547C42.1398 156.881 41.2248 155.301 41.7239 154.053C42.3062 152.722 44.0529 152.223 45.7166 152.889C47.297 153.554 48.212 155.135 47.7129 156.465Z" fill="url(#paint7_linear_182_2901)"/>
<path opacity="0.5" d="M50.9572 153.055C50.7077 153.72 49.7095 154.053 48.7945 153.637C47.7964 153.305 47.2973 152.39 47.63 151.641C47.8795 150.892 48.8777 150.643 49.7927 151.059C50.7909 151.391 51.2899 152.306 50.9572 153.055Z" fill="url(#paint8_linear_182_2901)"/>
<path d="M18.9327 108.221L22.5095 109.968C23.175 110.217 24.0068 110.217 24.589 109.884L28.0826 107.888C29.7462 106.973 31.6593 108.304 31.4098 110.134L30.9107 114.127C30.7443 114.875 31.0771 115.541 31.5761 116.04L34.5707 118.785C35.9015 120.032 35.2361 122.278 33.4061 122.611L29.4966 123.36C28.748 123.443 28.1657 123.942 27.833 124.607L26.1694 128.267C25.4208 130.014 23.0086 130.014 22.1768 128.434L20.2636 124.857C19.9309 124.191 19.2654 123.776 18.5168 123.692L14.5242 123.277C12.6942 123.027 11.8624 120.781 13.1933 119.45L15.9382 116.539C16.4373 116.04 16.6869 115.291 16.5205 114.543L15.7719 110.633C15.356 108.803 17.2691 107.389 18.9327 108.221Z" fill="url(#paint9_linear_182_2901)"/>
<path fill-rule="evenodd" clip-rule="evenodd" d="M32.4907 106.973C33.2393 107.971 33.6552 109.219 33.4888 110.384L32.9898 114.543L35.9011 117.288C37.1488 118.369 37.6479 120.032 37.1488 121.613C36.7329 123.193 35.402 124.358 33.8216 124.691L29.7457 125.439L28.0821 129.099C27.3335 130.68 25.8363 131.678 24.0895 131.678C22.5091 131.678 21.095 130.763 20.3464 129.349L18.2669 125.772L14.3574 125.273C12.6938 125.106 11.2797 124.025 10.7806 122.528C10.1984 120.947 10.5311 119.201 11.6956 118.036L14.5237 114.958L13.6919 111.049C13.4424 109.801 13.7752 108.47 14.607 107.472C15.4388 106.474 16.6033 105.892 17.9342 105.892C18.5996 105.892 19.2373 106.03 19.8473 106.308L23.5904 108.054L27.084 106.058C27.7494 105.725 28.4981 105.559 29.1635 105.559C30.4112 105.559 31.6589 106.058 32.4907 106.973ZM28.0821 107.888L24.5886 109.884C24.2559 110.051 23.8954 110.134 23.5072 110.134C23.1745 110.134 22.8418 110.079 22.5091 109.968L18.9323 108.221C18.5996 108.055 18.2669 107.971 17.9342 107.971C16.6033 107.971 15.4387 109.219 15.7714 110.633L16.5201 114.543C16.6865 115.291 16.4369 116.04 15.9378 116.539L13.1929 119.45C11.862 120.781 12.6938 123.027 14.5237 123.277L18.5164 123.692C19.265 123.776 19.9305 124.191 20.2632 124.857L22.1763 128.434C22.5922 129.182 23.3409 129.598 24.0895 129.598C24.9213 129.598 25.7531 129.182 26.169 128.267L27.8326 124.607C28.1653 123.942 28.7476 123.443 29.4962 123.36L33.4057 122.611C35.2357 122.278 35.9011 120.032 34.5702 118.785L31.5757 116.04C31.0766 115.541 30.7439 114.875 30.9103 114.127L31.4093 110.134C31.6589 108.72 30.4944 107.555 29.1635 107.555C28.8308 107.555 28.4703 107.666 28.0821 107.888Z" fill="#AD5E00"/>
<path opacity="0.5" d="M20.5963 115.374C21.1786 116.123 20.8459 117.204 19.9309 117.953C19.0991 118.618 17.9346 118.618 17.3523 117.953C16.8532 117.204 17.1028 116.123 18.0178 115.458C18.9327 114.709 20.0972 114.709 20.5963 115.374Z" fill="url(#paint10_linear_182_2901)"/>
<path opacity="0.5" d="M19.7638 112.546C20.0965 112.962 19.9302 113.544 19.4311 113.96C18.932 114.376 18.2666 114.376 17.9339 113.96C17.6011 113.544 17.7675 112.962 18.2665 112.546C18.7656 112.13 19.4311 112.13 19.7638 112.546Z" fill="url(#paint11_linear_182_2901)"/>
<path d="M49.9591 24.4583L49.5432 28.4509C49.46 29.1164 49.7927 29.865 50.375 30.3641L53.3695 32.9427C54.7835 34.1904 54.2013 36.4363 52.4545 36.8522L48.4618 37.684C47.7964 37.8503 47.1309 38.3494 46.8814 39.0148L45.3842 42.7579C44.6355 44.4215 42.3065 44.5879 41.3083 43.0075L39.312 39.5139C38.9792 38.8485 38.3138 38.4326 37.5652 38.4326L33.5725 38.0999C31.7426 37.9335 30.8276 35.7708 32.0753 34.3568L34.737 31.3623C35.2361 30.8632 35.4025 30.1146 35.2362 29.3659L34.3211 25.4564C33.9052 23.6265 35.7352 22.1293 37.3988 22.8779L41.0588 24.5415C41.7242 24.791 42.556 24.791 43.1383 24.3751L46.5487 22.2956C48.1291 21.2974 50.2086 22.5452 49.9591 24.4583Z" fill="url(#paint12_linear_182_2901)"/>
<path fill-rule="evenodd" clip-rule="evenodd" d="M50.9566 21.2974C51.7884 22.2124 52.2043 23.3769 52.0379 24.6246L51.7052 28.7836L54.6997 31.3622C56.0306 32.4436 56.5296 34.1072 56.1137 35.6876C55.6978 37.3512 54.4502 38.5158 52.8697 38.8485L48.7939 39.8466L47.2966 43.5066C46.6312 45.1702 45.0508 46.1683 43.304 46.1683C41.7236 46.1683 40.3095 45.4197 39.5609 44.0056L37.3982 40.5121L33.4055 40.1794C31.7419 40.013 30.3278 39.0148 29.7456 37.4344C29.1633 35.9372 29.4128 34.1904 30.5774 33.0258L33.2392 29.865L32.3242 25.9555C31.9915 24.6246 32.3242 23.2937 33.156 22.2956C33.9046 21.2142 35.2355 20.632 36.4832 20.632C37.0932 20.632 37.6754 20.7429 38.23 20.9647L42.0563 22.6283L45.4667 20.5488C46.2153 20.1329 46.9639 19.8834 47.7957 19.8834C48.9602 19.8834 50.1247 20.3824 50.9566 21.2974ZM46.548 22.2956L43.1376 24.3751C42.8049 24.5969 42.4167 24.7078 41.9731 24.7078C41.6958 24.7078 41.3908 24.6524 41.0581 24.5415L37.3982 22.8779C37.1209 22.767 36.8159 22.7115 36.4832 22.7115C35.1523 22.7115 33.9878 23.9592 34.3205 25.4564L35.2355 29.3659C35.4019 30.1145 35.2355 30.8632 34.7364 31.3622L32.0747 34.3567C30.827 35.7708 31.7419 37.9335 33.5719 38.0998L37.5645 38.4326C38.3132 38.4326 38.9786 38.8485 39.3113 39.5139L41.3077 43.0075C41.8067 43.7561 42.5554 44.0888 43.304 44.0888C44.1358 44.0888 44.9676 43.6729 45.3835 42.7579L46.8807 39.0148C47.1303 38.3494 47.7957 37.8503 48.4611 37.6839L52.4538 36.8521C54.2006 36.4362 54.7829 34.1904 53.3688 32.9427L50.3743 30.3641C49.7921 29.865 49.4593 29.1164 49.5425 28.4509L49.9584 24.4583C50.1248 23.0442 48.9602 21.9629 47.7957 21.9629C47.3521 21.9629 46.9362 22.0738 46.548 22.2956Z" fill="#AD5E00"/>
<path opacity="0.5" d="M43.8027 28.4509C43.3036 29.1995 42.1391 29.3659 41.2241 28.7005C40.226 28.1182 39.81 27.0369 40.3091 26.2882C40.8082 25.5396 41.8896 25.4564 42.8877 26.0387C43.8027 26.621 44.2186 27.7855 43.8027 28.4509Z" fill="url(#paint13_linear_182_2901)"/>
<path opacity="0.5" d="M46.1319 26.7042C45.8823 27.1201 45.2169 27.2033 44.7178 26.8705C44.1355 26.5378 43.9692 25.8724 44.2187 25.4565C44.4683 25.0406 45.1337 24.9574 45.6328 25.3733C46.2151 25.706 46.4646 26.2883 46.1319 26.7042Z" fill="url(#paint14_linear_182_2901)"/>
</g>
<defs>
<filter id="filter0_d_182_2901" x="0.5" y="0.491364" width="222" height="196.509" filterUnits="userSpaceOnUse" color-interpolation-filters="sRGB">
<feFlood flood-opacity="0" result="BackgroundImageFix"/>
<feColorMatrix in="SourceAlpha" type="matrix" values="0 0 0 0 0 0 0 0 0 0 0 0 0 0 0 0 0 0 127 0" result="hardAlpha"/>
<feOffset dy="4"/>
<feGaussianBlur stdDeviation="5"/>
<feComposite in2="hardAlpha" operator="out"/>
<feColorMatrix type="matrix" values="0 0 0 0 0 0 0 0 0 0 0 0 0 0 0 0 0 0 0.25 0"/>
<feBlend mode="normal" in2="BackgroundImageFix" result="effect1_dropShadow_182_2901"/>
<feBlend mode="normal" in="SourceGraphic" in2="effect1_dropShadow_182_2901" result="shape"/>
</filter>
<linearGradient id="paint0_linear_182_2901" x1="24.8785" y1="205.23" x2="24.8785" y2="-9.2372" gradientUnits="userSpaceOnUse">
<stop stop-color="#9F4A00"/>
<stop offset="1" stop-color="#FFD140"/>
</linearGradient>
<linearGradient id="paint1_linear_182_2901" x1="38.3712" y1="191.738" x2="38.3712" y2="-22.7291" gradientUnits="userSpaceOnUse">
<stop stop-color="#BE6D00"/>
<stop offset="1" stop-color="#FFF57F"/>
</linearGradient>
<linearGradient id="paint2_linear_182_2901" x1="159.783" y1="147.008" x2="39.9787" y2="27.2032" gradientUnits="userSpaceOnUse">
<stop stop-color="white"/>
<stop offset="1" stop-color="white"/>
</linearGradient>
<linearGradient id="paint3_linear_182_2901" x1="125.252" y1="227.121" x2="-8.10252" y2="93.7659" gradientUnits="userSpaceOnUse">
<stop stop-color="#BE6D00"/>
<stop offset="0.545" stop-color="#FFF57F"/>
<stop offset="0.994" stop-color="#DE9700"/>
</linearGradient>
<linearGradient id="paint4_linear_182_2901" x1="74.1789" y1="151.811" x2="74.1789" y2="16.983" gradientUnits="userSpaceOnUse">
<stop stop-color="#BE6D00"/>
<stop offset="1" stop-color="#FFF57F"/>
</linearGradient>
<linearGradient id="paint5_linear_182_2901" x1="150.494" y1="123.732" x2="75.1545" y2="48.3927" gradientUnits="userSpaceOnUse">
<stop stop-color="white"/>
<stop offset="1" stop-color="white"/>
</linearGradient>
<linearGradient id="paint6_linear_182_2901" x1="25.7697" y1="171.098" x2="38.7355" y2="139.163" gradientUnits="userSpaceOnUse">
<stop stop-color="#BE6D00"/>
<stop offset="1" stop-color="#FFF57F"/>
</linearGradient>
<linearGradient id="paint7_linear_182_2901" x1="42.0175" y1="156.817" x2="43.8947" y2="152.193" gradientUnits="userSpaceOnUse">
<stop stop-color="white"/>
<stop offset="1" stop-color="white"/>
</linearGradient>
<linearGradient id="paint8_linear_182_2901" x1="47.7373" y1="153.232" x2="48.8017" y2="150.61" gradientUnits="userSpaceOnUse">
<stop stop-color="white"/>
<stop offset="1" stop-color="white"/>
</linearGradient>
<linearGradient id="paint9_linear_182_2901" x1="21.6794" y1="132.106" x2="8.27824" y2="114.864" gradientUnits="userSpaceOnUse">
<stop stop-color="#BE6D00"/>
<stop offset="1" stop-color="#FFF57F"/>
</linearGradient>
<linearGradient id="paint10_linear_182_2901" x1="19.0026" y1="118.665" x2="17.062" y2="116.168" gradientUnits="userSpaceOnUse">
<stop stop-color="white"/>
<stop offset="1" stop-color="white"/>
</linearGradient>
<linearGradient id="paint11_linear_182_2901" x1="18.8505" y1="114.39" x2="17.75" y2="112.975" gradientUnits="userSpaceOnUse">
<stop stop-color="white"/>
<stop offset="1" stop-color="white"/>
</linearGradient>
<linearGradient id="paint12_linear_182_2901" x1="28.4395" y1="35.1852" x2="40.0754" y2="16.7058" gradientUnits="userSpaceOnUse">
<stop stop-color="#BE6D00"/>
<stop offset="1" stop-color="#FFF57F"/>
</linearGradient>
<linearGradient id="paint13_linear_182_2901" x1="40.1611" y1="28.0833" x2="41.8462" y2="25.4073" gradientUnits="userSpaceOnUse">
<stop stop-color="white"/>
<stop offset="1" stop-color="white"/>
</linearGradient>
<linearGradient id="paint14_linear_182_2901" x1="44.1272" y1="26.4821" x2="45.0826" y2="24.9646" gradientUnits="userSpaceOnUse">
<stop stop-color="white"/>
<stop offset="1" stop-color="white"/>
</linearGradient>
</defs>
</svg>
