<svg width="14" height="14" viewBox="0 0 16 21" fill="none" xmlns="http://www.w3.org/2000/svg">
<path d="M7.99988 20.5998H7.77988C5.84432 20.4918 4.02499 19.6414 2.70061 18.2258C1.37623 16.8101 0.648845 14.9382 0.669877 12.9998V11.2498C0.672696 10.9394 0.766884 10.6367 0.940683 10.3795C1.11448 10.1223 1.36019 9.92198 1.64714 9.80358C1.93408 9.68517 2.24954 9.65391 2.55414 9.7137C2.85874 9.77349 3.13898 9.92168 3.35988 10.1398L4.49988 11.2898C4.53637 11.3281 4.58368 11.3544 4.6355 11.3651C4.68732 11.3758 4.74118 11.3705 4.78988 11.3498C4.84663 11.3353 4.89742 11.3034 4.93509 11.2585C4.97276 11.2137 4.99542 11.1582 4.99988 11.0998V3.29977C4.99776 2.83097 5.12803 2.3711 5.3757 1.97306C5.62337 1.57502 5.97838 1.25499 6.39988 1.04977C6.81179 0.840563 7.27447 0.752087 7.73451 0.794553C8.19456 0.837018 8.63322 1.00869 8.99988 1.28977C10.9364 2.64307 12.5243 4.43631 13.6334 6.52231C14.7424 8.60831 15.341 10.9276 15.3799 13.2898C15.3759 14.2545 15.1819 15.209 14.8087 16.0987C14.4356 16.9884 13.8907 17.7958 13.2053 18.4747C12.5199 19.1536 11.7073 19.6908 10.8141 20.0554C9.92094 20.4201 8.96462 20.605 7.99988 20.5998ZM2.28988 11.1998L2.16988 11.2498V12.9998C2.14142 14.5494 2.71375 16.05 3.76697 17.1871C4.82019 18.3242 6.27257 19.0096 7.81988 19.0998C8.60016 19.1221 9.37705 18.9885 10.1051 18.7069C10.8331 18.4253 11.4977 18.0013 12.0599 17.4598C12.6217 16.9185 13.0682 16.2692 13.3724 15.5508C13.6766 14.8324 13.8322 14.0599 13.8299 13.2798C13.7854 11.1515 13.2387 9.06388 12.2342 7.18705C11.2298 5.31021 9.79604 3.69729 8.04988 2.47977C7.90593 2.37794 7.73761 2.31598 7.56199 2.30017C7.38637 2.28436 7.2097 2.31528 7.04988 2.38977C6.88003 2.47297 6.73727 2.60263 6.63815 2.76371C6.53903 2.92478 6.48761 3.11066 6.48988 3.29977V11.0998C6.48545 11.4453 6.37997 11.782 6.18644 12.0683C5.99291 12.3547 5.71979 12.578 5.40079 12.711C5.08179 12.8439 4.73086 12.8805 4.39128 12.8163C4.05171 12.7521 3.73836 12.59 3.48988 12.3498L2.28988 11.1998Z" fill="#C24141"/>
</svg>
