<svg width="20" height="20" viewBox="0 0 24 25" fill="none" xmlns="http://www.w3.org/2000/svg">
<path d="M18.11 22.7353H5.90001C5.58269 22.7366 5.26822 22.6753 4.97467 22.5548C4.68112 22.4342 4.41427 22.2569 4.18942 22.033C3.96457 21.8091 3.78615 21.543 3.66441 21.2499C3.54267 20.9569 3.48001 20.6427 3.48001 20.3253V4.27533C3.47334 3.95382 3.53107 3.63422 3.64982 3.33537C3.76857 3.03652 3.94593 2.76445 4.17145 2.53521C4.39697 2.30596 4.6661 2.12416 4.96296 2.00053C5.25983 1.8769 5.57843 1.81393 5.90001 1.81533H18.11C18.4307 1.81526 18.7483 1.87922 19.044 2.00344C19.3397 2.12767 19.6076 2.30968 19.8321 2.53879C20.0565 2.7679 20.233 3.03951 20.3511 3.3377C20.4692 3.63589 20.5267 3.95466 20.52 4.27533V20.3753C20.5069 21.0058 20.2473 21.606 19.7967 22.0472C19.3461 22.4884 18.7406 22.7355 18.11 22.7353ZM5.90001 2.81533C5.70972 2.81386 5.52111 2.85092 5.34553 2.92429C5.16994 2.99765 5.01103 3.1058 4.87835 3.24221C4.74568 3.37862 4.64199 3.54048 4.57353 3.71803C4.50507 3.89559 4.47326 4.08516 4.48001 4.27533V20.3753C4.49302 20.7423 4.64867 21.0897 4.91385 21.3437C5.17903 21.5977 5.53283 21.7382 5.90001 21.7353H18.11C18.484 21.7353 18.8426 21.5868 19.107 21.3224C19.3715 21.0579 19.52 20.6993 19.52 20.3253V4.27533C19.52 3.90138 19.3715 3.54274 19.107 3.27831C18.8426 3.01388 18.484 2.86533 18.11 2.86533L5.90001 2.81533Z" fill="white"/>
<path d="M20 12.7754H14.47C14.3374 12.7754 14.2102 12.7227 14.1164 12.6289C14.0226 12.5352 13.97 12.408 13.97 12.2754C13.97 12.1428 14.0226 12.0156 14.1164 11.9218C14.2102 11.8281 14.3374 11.7754 14.47 11.7754H20C20.1326 11.7754 20.2598 11.8281 20.3535 11.9218C20.4473 12.0156 20.5 12.1428 20.5 12.2754C20.5 12.408 20.4473 12.5352 20.3535 12.6289C20.2598 12.7227 20.1326 12.7754 20 12.7754Z" fill="white"/>
<path d="M9.54 12.7754H4C3.86739 12.7754 3.74021 12.7227 3.64645 12.6289C3.55268 12.5352 3.5 12.408 3.5 12.2754C3.5 12.1428 3.55268 12.0156 3.64645 11.9218C3.74021 11.8281 3.86739 11.7754 4 11.7754H9.54C9.67261 11.7754 9.79979 11.8281 9.89355 11.9218C9.98732 12.0156 10.04 12.1428 10.04 12.2754C10.04 12.408 9.98732 12.5352 9.89355 12.6289C9.79979 12.7227 9.67261 12.7754 9.54 12.7754Z" fill="white"/>
<path d="M15.36 6.15539H8.64001C8.50741 6.15539 8.38023 6.10271 8.28646 6.00894C8.19269 5.91518 8.14001 5.788 8.14001 5.65539V2.27539C8.14001 2.14278 8.19269 2.01561 8.28646 1.92184C8.38023 1.82807 8.50741 1.77539 8.64001 1.77539H15.36C15.4926 1.77539 15.6198 1.82807 15.7136 1.92184C15.8073 2.01561 15.86 2.14278 15.86 2.27539V5.65539C15.86 5.788 15.8073 5.91518 15.7136 6.00894C15.6198 6.10271 15.4926 6.15539 15.36 6.15539ZM9.14001 5.15539H14.86V2.81539H9.14001V5.15539Z" fill="white"/>
<path d="M15.36 22.7354H8.64001C8.50741 22.7354 8.38023 22.6827 8.28646 22.5889C8.19269 22.4952 8.14001 22.368 8.14001 22.2354V18.8954C8.14001 18.7628 8.19269 18.6356 8.28646 18.5418C8.38023 18.4481 8.50741 18.3954 8.64001 18.3954H15.36C15.4926 18.3954 15.6198 18.4481 15.7136 18.5418C15.8073 18.6356 15.86 18.7628 15.86 18.8954V22.2754C15.8499 22.4009 15.7928 22.5181 15.7001 22.6034C15.6074 22.6886 15.486 22.7358 15.36 22.7354ZM9.14001 21.7354H14.86V19.3954H9.14001V21.7354Z" fill="white"/>
<path d="M12 15.1754C11.4067 15.1754 10.8266 14.9995 10.3333 14.6698C9.83994 14.3402 9.45543 13.8716 9.22836 13.3235C9.0013 12.7753 8.94189 12.1721 9.05765 11.5901C9.1734 11.0082 9.45912 10.4737 9.87868 10.0541C10.2982 9.63454 10.8328 9.34882 11.4147 9.23306C11.9967 9.1173 12.5999 9.17671 13.1481 9.40378C13.6962 9.63084 14.1648 10.0154 14.4944 10.5087C14.8241 11.0021 15 11.5821 15 12.1754C15 12.9711 14.6839 13.7341 14.1213 14.2967C13.5587 14.8593 12.7957 15.1754 12 15.1754ZM12 10.2754C11.6044 10.2754 11.2178 10.3927 10.8889 10.6125C10.56 10.8322 10.3036 11.1446 10.1522 11.51C10.0009 11.8755 9.96126 12.2776 10.0384 12.6656C10.1156 13.0536 10.3061 13.4099 10.5858 13.6896C10.8655 13.9693 11.2219 14.1598 11.6098 14.237C11.9978 14.3142 12.3999 14.2746 12.7654 14.1232C13.1308 13.9718 13.4432 13.7155 13.6629 13.3866C13.8827 13.0577 14 12.671 14 12.2754C14 11.745 13.7893 11.2363 13.4142 10.8612C13.0391 10.4861 12.5304 10.2754 12 10.2754Z" fill="white"/>
</svg>
