<svg width="24" height="24" viewBox="0 0 24 25" fill="none" xmlns="http://www.w3.org/2000/svg">
<g clip-path="url(#clip0_318_10329)">
<path d="M12 24.5C18.6274 24.5 24 19.1274 24 12.5C24 5.87258 18.6274 0.5 12 0.5C5.37258 0.5 0 5.87258 0 12.5C0 19.1274 5.37258 24.5 12 24.5Z" fill="#F3BA2F"/>
<path d="M9.087 11.303L12 8.39L14.9145 11.3045L16.6095 9.6095L12 5L7.392 9.608L9.087 11.303ZM4.5 12.5L6.195 10.805L7.89 12.5L6.195 14.195L4.5 12.5ZM9.087 13.697L12 16.61L14.9145 13.6955L16.6095 15.3898L12 20L7.392 15.392L7.38975 15.3898L9.087 13.697ZM16.11 12.5L17.805 10.805L19.5 12.5L17.805 14.195L16.11 12.5ZM13.719 12.4985H13.7205V12.5L12 14.2205L10.2817 12.503L10.2787 12.5L10.2817 12.4977L10.5825 12.1962L10.7288 12.05L12 10.7795L13.7197 12.4992L13.719 12.4985Z" fill="white"/>
</g>
<defs>
<clipPath id="clip0_318_10329">
<rect width="24" height="24" fill="white" transform="translate(0 0.5)"/>
</clipPath>
</defs>
</svg>
