<svg width="24" height="24" viewBox="0 0 24 25" fill="none" xmlns="http://www.w3.org/2000/svg">
<g clip-path="url(#clip0_318_10374)">
<path d="M12 24.5C18.6274 24.5 24 19.1274 24 12.5C24 5.87258 18.6274 0.5 12 0.5C5.37258 0.5 0 5.87258 0 12.5C0 19.1274 5.37258 24.5 12 24.5Z" fill="#F7931A"/>
<path d="M17.3912 11.015C17.6267 9.443 16.4289 8.59775 14.7924 8.03375L15.3234 5.90375L14.0274 5.58125L13.5099 7.655C13.1694 7.5695 12.8199 7.49 12.4712 7.4105L12.9924 5.32325L11.6964 5L11.1654 7.12925C10.8834 7.06475 10.6059 7.00175 10.3374 6.93425L10.3389 6.9275L8.55094 6.48125L8.20594 7.86575C8.20594 7.86575 9.16819 8.08625 9.14794 8.09975C9.67294 8.231 9.76744 8.57825 9.75169 8.85425L9.14719 11.2805C9.18319 11.2895 9.22969 11.303 9.28219 11.3232L9.14494 11.2895L8.29744 14.6885C8.23294 14.8475 8.07019 15.0867 7.70269 14.996C7.71619 15.0147 6.76069 14.7612 6.76069 14.7612L6.11719 16.2448L7.80469 16.6655C8.11819 16.7443 8.42569 16.8267 8.72794 16.904L8.19169 19.058L9.48694 19.3805L10.0179 17.2505C10.3719 17.3457 10.7154 17.4342 11.0514 17.5182L10.5219 19.6392L11.8179 19.9618L12.3542 17.8123C14.5652 18.2308 16.2272 18.062 16.9269 16.0625C17.4909 14.453 16.8992 13.5238 15.7359 12.9185C16.5834 12.7235 17.2209 12.1663 17.3912 11.015ZM14.4287 15.1685C14.0289 16.7788 11.3177 15.908 10.4387 15.6898L11.1512 12.836C12.0302 13.0557 14.8479 13.49 14.4287 15.1685ZM14.8299 10.9918C14.4647 12.4565 12.2087 11.7118 11.4774 11.5295L12.1224 8.942C12.8537 9.12425 15.2109 9.464 14.8299 10.9918Z" fill="white"/>
</g>
<defs>
<clipPath id="clip0_318_10374">
<rect width="24" height="24" fill="white" transform="translate(0 0.5)"/>
</clipPath>
</defs>
</svg>
