<svg width="20" height="20" viewBox="0 0 24 25" fill="none" xmlns="http://www.w3.org/2000/svg">
<path d="M12.0001 15.8355C11.9195 15.836 11.8401 15.8153 11.7701 15.7755C11.6601 15.7155 9.03006 14.3255 8.47006 12.4055C8.30076 11.9328 8.24159 11.4276 8.29704 10.9285C8.35249 10.4294 8.52112 9.94958 8.79006 9.52552C8.98418 9.26275 9.23971 9.05152 9.53431 8.91032C9.82892 8.76912 10.1536 8.70224 10.4801 8.71552C10.7679 8.70254 11.0549 8.75626 11.3185 8.87248C11.5822 8.9887 11.8154 9.16428 12.0001 9.38552C12.1847 9.16428 12.4179 8.9887 12.6816 8.87248C12.9453 8.75626 13.2322 8.70254 13.5201 8.71552C13.8465 8.70224 14.1712 8.76912 14.4658 8.91032C14.7604 9.05152 15.0159 9.26275 15.2101 9.52552C15.4797 9.94929 15.6487 10.4292 15.7042 10.9284C15.7597 11.4276 15.7001 11.9329 15.5301 12.4055C14.9701 14.3255 12.3401 15.7155 12.2301 15.7755C12.16 15.8153 12.0807 15.836 12.0001 15.8355ZM10.4801 9.71552C10.309 9.70175 10.1373 9.73223 9.9814 9.80404C9.82553 9.87584 9.69076 9.98656 9.59006 10.1255C9.41874 10.4269 9.31562 10.7622 9.28798 11.1078C9.26033 11.4533 9.30883 11.8007 9.43006 12.1255C9.98469 13.2536 10.8851 14.175 12.0001 14.7555C13.115 14.175 14.0154 13.2536 14.5701 12.1255C14.6913 11.8007 14.7398 11.4533 14.7121 11.1078C14.6845 10.7622 14.5814 10.4269 14.4101 10.1255C14.3094 9.98656 14.1746 9.87584 14.0187 9.80404C13.8629 9.73223 13.6911 9.70175 13.5201 9.71552C13.2548 9.71552 13.0005 9.82088 12.813 10.0084C12.6254 10.196 12.5201 10.4503 12.5201 10.7155C12.5201 10.8481 12.4674 10.9753 12.3736 11.0691C12.2798 11.1628 12.1527 11.2155 12.0201 11.2155C11.8875 11.2155 11.7603 11.1628 11.6665 11.0691C11.5727 10.9753 11.5201 10.8481 11.5201 10.7155C11.5202 10.5808 11.493 10.4474 11.4403 10.3234C11.3876 10.1994 11.3103 10.0873 11.2132 9.99389C11.116 9.90049 11.001 9.82768 10.875 9.77985C10.7491 9.73201 10.6147 9.71013 10.4801 9.71552Z" fill="white"/>
<path d="M17 22.7355H6.99998C6.07515 22.7408 5.1858 22.3799 4.52624 21.7316C3.86668 21.0833 3.49053 20.2003 3.47998 19.2755V5.27549C3.49053 4.35071 3.86668 3.46769 4.52624 2.81937C5.1858 2.17106 6.07515 1.81014 6.99998 1.81549H17C17.9248 1.81014 18.8142 2.17106 19.4737 2.81937C20.1333 3.46769 20.5094 4.35071 20.52 5.27549V19.2755C20.5094 20.2003 20.1333 21.0833 19.4737 21.7316C18.8142 22.3799 17.9248 22.7408 17 22.7355ZM6.99998 2.81549C6.34036 2.81013 5.70535 3.06568 5.23332 3.52647C4.76129 3.98726 4.49051 4.61593 4.47998 5.27549V19.2755C4.49051 19.935 4.76129 20.5637 5.23332 21.0245C5.70535 21.4853 6.34036 21.7408 6.99998 21.7355H17C17.3283 21.7355 17.6534 21.6708 17.9567 21.5452C18.26 21.4195 18.5356 21.2354 18.7677 21.0033C18.9999 20.7711 19.184 20.4955 19.3097 20.1922C19.4353 19.8889 19.5 19.5638 19.5 19.2355V5.27549C19.4895 4.6194 19.2215 3.99375 18.7538 3.53352C18.286 3.0733 17.6561 2.8154 17 2.81549H6.99998Z" fill="white"/>
</svg>
