<svg width="22" height="22" viewBox="0 0 22 22" fill="none" xmlns="http://www.w3.org/2000/svg">
<path fill-rule="evenodd" clip-rule="evenodd" d="M7.91 6.70001C7.72061 6.70001 7.5 6.87686 7.5 7.17001C7.5 7.42198 7.55322 7.48848 7.55864 7.49526C7.55858 7.49518 7.55873 7.49537 7.55864 7.49526C7.57018 7.50989 7.61385 7.55684 7.79919 7.62262L10.2051 8.46469C10.4943 8.56928 10.8465 8.73833 11.1121 9.07812C11.3849 9.42711 11.49 9.85597 11.49 10.33C11.49 11.3769 10.6706 12.3 9.58 12.3H8.08C6.90054 12.3 6 11.2981 6 10.15C6 9.7358 6.33579 9.40001 6.75 9.40001C7.16421 9.40001 7.5 9.7358 7.5 10.15C7.5 10.542 7.79946 10.8 8.08 10.8H9.58C9.76939 10.8 9.99 10.6232 9.99 10.33C9.99 10.0776 9.93656 10.0098 9.93058 10.0022C9.91876 9.98707 9.87629 9.94128 9.69826 9.87651L7.29961 9.03699C7.00596 8.93299 6.64956 8.76482 6.38113 8.42448C6.105 8.07439 6 7.64387 6 7.17001C6 6.12316 6.81939 5.20001 7.91 5.20001H9.42014C10.5891 5.21581 11.5 6.18876 11.5 7.35001C11.5 7.76423 11.1642 8.10001 10.75 8.10001C10.3358 8.10001 10 7.76423 10 7.35001C10 6.97288 9.71336 6.70644 9.40386 6.70001H7.91Z" fill="white"/>
<path fill-rule="evenodd" clip-rule="evenodd" d="M8.75 10.85C9.16421 10.85 9.5 11.1858 9.5 11.6V12.34C9.5 12.7542 9.16421 13.09 8.75 13.09C8.33579 13.09 8 12.7542 8 12.34V11.6C8 11.1858 8.33579 10.85 8.75 10.85Z" fill="white"/>
<path fill-rule="evenodd" clip-rule="evenodd" d="M8.75 4.41C9.16421 4.41 9.5 4.74579 9.5 5.16V5.94C9.5 6.35422 9.16421 6.69 8.75 6.69C8.33579 6.69 8 6.35422 8 5.94V5.16C8 4.74579 8.33579 4.41 8.75 4.41Z" fill="white"/>
<path fill-rule="evenodd" clip-rule="evenodd" d="M8.74 1.5C4.74146 1.5 1.5 4.74146 1.5 8.74C1.5 12.7385 4.74146 15.98 8.74 15.98C12.7385 15.98 15.98 12.7385 15.98 8.74C15.98 4.74146 12.7385 1.5 8.74 1.5ZM0 8.74C0 3.91303 3.91303 0 8.74 0C13.567 0 17.48 3.91303 17.48 8.74C17.48 13.567 13.567 17.48 8.74 17.48C3.91303 17.48 0 13.567 0 8.74Z" fill="white"/>
<path fill-rule="evenodd" clip-rule="evenodd" d="M18.0519 11.3118C18.2939 10.9756 18.7626 10.8993 19.0988 11.1413C20.5349 12.1754 21.4805 13.8672 21.4805 15.78C21.4805 18.9242 18.9247 21.48 15.7805 21.48C13.8453 21.48 12.1521 20.522 11.1186 19.0636C10.8791 18.7257 10.9589 18.2576 11.2969 18.0181C11.6348 17.7786 12.103 17.8584 12.3425 18.1963C13.109 19.278 14.3558 19.98 15.7805 19.98C18.0963 19.98 19.9805 18.0958 19.9805 15.78C19.9805 14.3728 19.2861 13.1246 18.2223 12.3586C17.8862 12.1166 17.8099 11.6479 18.0519 11.3118Z" fill="white"/>
</svg>
