<svg width="24" height="24" viewBox="0 0 24 24" fill="none" xmlns="http://www.w3.org/2000/svg">
<path d="M6.88989 12.1596C6.74069 12.1613 6.59438 12.1184 6.46969 12.0364C6.34499 11.9545 6.24757 11.8372 6.18989 11.6996C6.15001 11.6081 6.12958 11.5094 6.12989 11.4096C6.13006 11.2108 6.20919 11.0201 6.34989 10.8796C6.4212 10.8095 6.50634 10.755 6.59989 10.7196C6.73552 10.6628 6.88501 10.6476 7.02928 10.6761C7.17354 10.7046 7.30605 10.7755 7.40989 10.8796C7.55034 11.0202 7.62923 11.2109 7.62923 11.4096C7.62923 11.6084 7.55034 11.799 7.40989 11.9396C7.34216 12.009 7.2613 12.0641 7.17202 12.1019C7.08274 12.1397 6.98683 12.1593 6.88989 12.1596Z" fill="white"/>
<path d="M9.7301 14.9996C9.63447 15.0196 9.53574 15.0196 9.4401 14.9996C9.35085 14.9617 9.26946 14.9074 9.2001 14.8396C9.10728 14.7598 9.03811 14.656 9.0001 14.5396C8.98043 14.444 8.98043 14.3453 9.0001 14.2496C9.00241 14.0512 9.08122 13.8614 9.2201 13.7196C9.29195 13.655 9.37279 13.6011 9.4601 13.5596C9.56334 13.5158 9.67508 13.4957 9.78712 13.5008C9.89916 13.5058 10.0086 13.536 10.1075 13.5889C10.2063 13.6419 10.292 13.7164 10.3583 13.8069C10.4246 13.8974 10.4697 14.0016 10.4904 14.1118C10.511 14.222 10.5067 14.3355 10.4777 14.4438C10.4487 14.5522 10.3958 14.6526 10.3229 14.7378C10.2499 14.823 10.1588 14.8907 10.0562 14.9361C9.95365 14.9814 9.8422 15.0031 9.7301 14.9996Z" fill="white"/>
<path d="M14.2402 10.4897C14.1437 10.4901 14.0482 10.4696 13.9602 10.4297C13.8667 10.3943 13.7816 10.3398 13.7102 10.2697C13.5695 10.1292 13.4904 9.93853 13.4902 9.73968C13.4899 9.6399 13.5104 9.54115 13.5502 9.44968C13.5882 9.36043 13.6424 9.27904 13.7102 9.20968C13.79 9.1302 13.8905 9.07475 14.0002 9.04968C14.1359 8.99285 14.2854 8.97772 14.4296 9.00622C14.5739 9.03471 14.7064 9.10555 14.8102 9.20968C14.915 9.31457 14.9863 9.44815 15.0152 9.59355C15.0441 9.73895 15.0292 9.88964 14.9725 10.0266C14.9158 10.1636 14.8198 10.2807 14.6966 10.3631C14.5734 10.4455 14.4285 10.4896 14.2802 10.4897H14.2402Z" fill="white"/>
<path d="M11.3999 7.64963C11.2011 7.64946 11.0105 7.57033 10.8699 7.42963C10.7986 7.35931 10.7439 7.27388 10.7099 7.17963C10.6711 7.09134 10.6507 6.99607 10.6499 6.89963C10.6489 6.80101 10.6679 6.7032 10.7057 6.61211C10.7435 6.52102 10.7994 6.43853 10.8699 6.36963C11.013 6.23388 11.2027 6.1582 11.3999 6.1582C11.5972 6.1582 11.7869 6.23388 11.9299 6.36963C12.0706 6.51015 12.1498 6.70079 12.1499 6.89963C12.1476 7.09805 12.0688 7.28791 11.9299 7.42963C11.7894 7.57033 11.5988 7.64946 11.3999 7.64963Z" fill="white"/>
<path d="M12.5401 17.8198C12.3382 17.8201 12.1443 17.7411 12.0001 17.5998C11.8597 17.4591 11.7808 17.2685 11.7808 17.0698C11.7808 16.871 11.8597 16.6804 12.0001 16.5398C12.0687 16.4663 12.1547 16.4113 12.2501 16.3798C12.3857 16.3229 12.5352 16.3078 12.6795 16.3363C12.8238 16.3648 12.9563 16.4356 13.0601 16.5398C13.1649 16.6447 13.2362 16.7782 13.2651 16.9236C13.294 17.069 13.2791 17.2197 13.2224 17.3567C13.1657 17.4937 13.0696 17.6107 12.9464 17.6932C12.8232 17.7756 12.6783 17.8196 12.5301 17.8198H12.5401Z" fill="white"/>
<path d="M17.0601 13.2998C16.8612 13.2996 16.6706 13.2205 16.5301 13.0798C16.4592 13.0108 16.4016 12.9295 16.3601 12.8398C16.3233 12.7477 16.3063 12.6489 16.3101 12.5498C16.3101 12.3509 16.3891 12.1601 16.5298 12.0195C16.6704 11.8788 16.8612 11.7998 17.0601 11.7998C17.259 11.7998 17.4498 11.8788 17.5904 12.0195C17.7311 12.1601 17.8101 12.3509 17.8101 12.5498C17.8104 12.6496 17.79 12.7483 17.7501 12.8398C17.7121 12.9291 17.6579 13.0104 17.5901 13.0798C17.4484 13.2187 17.2585 13.2975 17.0601 13.2998Z" fill="white"/>
<path d="M12 22.8398C11.5076 22.8399 11.0201 22.7428 10.5653 22.554C10.1106 22.3652 9.69758 22.0885 9.35002 21.7398L2.25002 14.6398C1.54777 13.9366 1.15332 12.9835 1.15332 11.9898C1.15332 10.996 1.54777 10.0429 2.25002 9.33977L9.35002 2.23977C10.0531 1.53751 11.0063 1.14307 12 1.14307C12.9938 1.14307 13.9469 1.53751 14.65 2.23977L21.75 9.33977C22.0989 9.68726 22.3758 10.1002 22.5647 10.555C22.7536 11.0097 22.8509 11.4973 22.8509 11.9898C22.8509 12.4822 22.7536 12.9698 22.5647 13.4245C22.3758 13.8793 22.0989 14.2923 21.75 14.6398L14.65 21.7398C14.3025 22.0885 13.8895 22.3652 13.4347 22.554C12.9799 22.7428 12.4924 22.8399 12 22.8398ZM12 2.63977C11.7045 2.63893 11.4117 2.69684 11.1388 2.81015C10.8658 2.92345 10.6181 3.08988 10.41 3.29977L3.31002 10.3998C2.88867 10.8216 2.652 11.3935 2.652 11.9898C2.652 12.586 2.88867 13.1579 3.31002 13.5798L10.41 20.6798C10.8319 21.1011 11.4038 21.3378 12 21.3378C12.5963 21.3378 13.1681 21.1011 13.59 20.6798L20.69 13.5798C21.1114 13.1579 21.348 12.586 21.348 11.9898C21.348 11.3935 21.1114 10.8216 20.69 10.3998L13.59 3.29977C13.382 3.08988 13.1342 2.92345 12.8613 2.81015C12.5883 2.69684 12.2956 2.63893 12 2.63977Z" fill="white"/>
</svg>
