<svg width="24" height="24" viewBox="0 0 24 24" fill="none" xmlns="http://www.w3.org/2000/svg">
<mask id="path-1-inside-1_1023_5711" fill="white">
<path d="M18 19.5H6C5.07174 19.5 4.1815 19.1313 3.52513 18.4749C2.86875 17.8185 2.5 16.9283 2.5 16V8C2.5 7.07174 2.86875 6.1815 3.52513 5.52513C4.1815 4.86875 5.07174 4.5 6 4.5H18C18.9283 4.5 19.8185 4.86875 20.4749 5.52513C21.1313 6.1815 21.5 7.07174 21.5 8V16C21.5 16.9283 21.1313 17.8185 20.4749 18.4749C19.8185 19.1313 18.9283 19.5 18 19.5ZM6 5.5C5.33696 5.5 4.70107 5.76339 4.23223 6.23223C3.76339 6.70107 3.5 7.33696 3.5 8V16C3.5 16.663 3.76339 17.2989 4.23223 17.7678C4.70107 18.2366 5.33696 18.5 6 18.5H18C18.3283 18.5 18.6534 18.4353 18.9567 18.3097C19.26 18.1841 19.5356 17.9999 19.7678 17.7678C19.9999 17.5356 20.1841 17.26 20.3097 16.9567C20.4353 16.6534 20.5 16.3283 20.5 16V8C20.5 7.6717 20.4353 7.34661 20.3097 7.04329C20.1841 6.73998 19.9999 6.46438 19.7678 6.23223C19.5356 6.00009 19.26 5.81594 18.9567 5.6903C18.6534 5.56466 18.3283 5.5 18 5.5H6Z"/>
</mask>
<path d="M18 19.5H6C5.07174 19.5 4.1815 19.1313 3.52513 18.4749C2.86875 17.8185 2.5 16.9283 2.5 16V8C2.5 7.07174 2.86875 6.1815 3.52513 5.52513C4.1815 4.86875 5.07174 4.5 6 4.5H18C18.9283 4.5 19.8185 4.86875 20.4749 5.52513C21.1313 6.1815 21.5 7.07174 21.5 8V16C21.5 16.9283 21.1313 17.8185 20.4749 18.4749C19.8185 19.1313 18.9283 19.5 18 19.5ZM6 5.5C5.33696 5.5 4.70107 5.76339 4.23223 6.23223C3.76339 6.70107 3.5 7.33696 3.5 8V16C3.5 16.663 3.76339 17.2989 4.23223 17.7678C4.70107 18.2366 5.33696 18.5 6 18.5H18C18.3283 18.5 18.6534 18.4353 18.9567 18.3097C19.26 18.1841 19.5356 17.9999 19.7678 17.7678C19.9999 17.5356 20.1841 17.26 20.3097 16.9567C20.4353 16.6534 20.5 16.3283 20.5 16V8C20.5 7.6717 20.4353 7.34661 20.3097 7.04329C20.1841 6.73998 19.9999 6.46438 19.7678 6.23223C19.5356 6.00009 19.26 5.81594 18.9567 5.6903C18.6534 5.56466 18.3283 5.5 18 5.5H6Z" fill="white"/>
<path d="M2.5 16H0.5H2.5ZM6 4.5V2.5V4.5ZM6 5.5V3.5V5.5ZM3.5 8H1.5H3.5ZM3.5 16H1.5H3.5ZM18 18.5V16.5V18.5ZM20.5 8H18.5H20.5ZM18 5.5V3.5V5.5ZM18 17.5H6V21.5H18V17.5ZM6 17.5C5.60217 17.5 5.22064 17.342 4.93934 17.0607L2.11091 19.8891C3.14236 20.9205 4.54131 21.5 6 21.5V17.5ZM4.93934 17.0607C4.65804 16.7794 4.5 16.3978 4.5 16H0.5C0.5 17.4587 1.07946 18.8576 2.11091 19.8891L4.93934 17.0607ZM4.5 16V8H0.5V16H4.5ZM4.5 8C4.5 7.60218 4.65804 7.22064 4.93934 6.93934L2.11091 4.11091C1.07946 5.14236 0.5 6.54131 0.5 8H4.5ZM4.93934 6.93934C5.22064 6.65804 5.60218 6.5 6 6.5V2.5C4.54131 2.5 3.14236 3.07946 2.11091 4.11091L4.93934 6.93934ZM6 6.5H18V2.5H6V6.5ZM18 6.5C18.3978 6.5 18.7794 6.65804 19.0607 6.93934L21.8891 4.11091C20.8576 3.07946 19.4587 2.5 18 2.5V6.5ZM19.0607 6.93934C19.342 7.22064 19.5 7.60217 19.5 8H23.5C23.5 6.54131 22.9205 5.14236 21.8891 4.11091L19.0607 6.93934ZM19.5 8V16H23.5V8H19.5ZM19.5 16C19.5 16.3978 19.342 16.7794 19.0607 17.0607L21.8891 19.8891C22.9205 18.8576 23.5 17.4587 23.5 16H19.5ZM19.0607 17.0607C18.7794 17.342 18.3978 17.5 18 17.5V21.5C19.4587 21.5 20.8576 20.9205 21.8891 19.8891L19.0607 17.0607ZM6 3.5C4.80653 3.5 3.66193 3.97411 2.81802 4.81802L5.64645 7.64645C5.74021 7.55268 5.86739 7.5 6 7.5V3.5ZM2.81802 4.81802C1.97411 5.66193 1.5 6.80653 1.5 8H5.5C5.5 7.86739 5.55268 7.74021 5.64645 7.64645L2.81802 4.81802ZM1.5 8V16H5.5V8H1.5ZM1.5 16C1.5 17.1935 1.97411 18.3381 2.81802 19.182L5.64645 16.3536C5.55268 16.2598 5.5 16.1326 5.5 16H1.5ZM2.81802 19.182C3.66193 20.0259 4.80653 20.5 6 20.5V16.5C5.86739 16.5 5.74021 16.4473 5.64645 16.3536L2.81802 19.182ZM6 20.5H18V16.5H6V20.5ZM18 20.5C18.591 20.5 19.1761 20.3836 19.7221 20.1575L18.1913 16.4619C18.1307 16.4871 18.0657 16.5 18 16.5V20.5ZM19.7221 20.1575C20.268 19.9313 20.7641 19.5998 21.182 19.182L18.3536 16.3536C18.3071 16.4 18.252 16.4368 18.1913 16.4619L19.7221 20.1575ZM21.182 19.182C21.5998 18.7641 21.9313 18.268 22.1575 17.7221L18.4619 16.1913C18.4368 16.252 18.4 16.3071 18.3536 16.3536L21.182 19.182ZM22.1575 17.7221C22.3836 17.1761 22.5 16.591 22.5 16H18.5C18.5 16.0657 18.4871 16.1307 18.4619 16.1913L22.1575 17.7221ZM22.5 16V8H18.5V16H22.5ZM22.5 8C22.5 7.40905 22.3836 6.82389 22.1575 6.27792L18.4619 7.80866C18.4871 7.86932 18.5 7.93434 18.5 8H22.5ZM22.1575 6.27792C21.9313 5.73196 21.5998 5.23589 21.182 4.81802L18.3536 7.64645C18.4 7.69287 18.4368 7.74799 18.4619 7.80866L22.1575 6.27792ZM21.182 4.81802C20.7641 4.40016 20.268 4.06869 19.7221 3.84254L18.1913 7.53806C18.252 7.56319 18.3071 7.60002 18.3536 7.64645L21.182 4.81802ZM19.7221 3.84254C19.1761 3.6164 18.5909 3.5 18 3.5V7.5C18.0657 7.5 18.1307 7.51293 18.1913 7.53806L19.7221 3.84254ZM18 3.5H6V7.5H18V3.5Z" fill="white" mask="url(#path-1-inside-1_1023_5711)"/>
<mask id="path-3-inside-2_1023_5711" fill="white">
<path d="M11.9987 14.58H11.8387L2.83868 11.49C2.72833 11.4371 2.64119 11.3456 2.59376 11.2328C2.54634 11.12 2.54193 10.9938 2.58136 10.8779C2.6208 10.7621 2.70134 10.6647 2.80773 10.6043C2.91413 10.5439 3.039 10.5245 3.15868 10.55L11.9987 13.55L20.8487 10.68C20.9747 10.6417 21.1107 10.6536 21.2281 10.7132C21.3455 10.7729 21.4353 10.8756 21.4787 11C21.4988 11.063 21.5062 11.1294 21.5004 11.1953C21.4947 11.2612 21.4759 11.3253 21.4452 11.3839C21.4145 11.4425 21.3725 11.4944 21.3216 11.5367C21.2707 11.5789 21.2119 11.6106 21.1487 11.63L12.1487 14.55C12.1012 14.5698 12.0502 14.58 11.9987 14.58Z"/>
</mask>
<path d="M11.9987 14.58H11.8387L2.83868 11.49C2.72833 11.4371 2.64119 11.3456 2.59376 11.2328C2.54634 11.12 2.54193 10.9938 2.58136 10.8779C2.6208 10.7621 2.70134 10.6647 2.80773 10.6043C2.91413 10.5439 3.039 10.5245 3.15868 10.55L11.9987 13.55L20.8487 10.68C20.9747 10.6417 21.1107 10.6536 21.2281 10.7132C21.3455 10.7729 21.4353 10.8756 21.4787 11C21.4988 11.063 21.5062 11.1294 21.5004 11.1953C21.4947 11.2612 21.4759 11.3253 21.4452 11.3839C21.4145 11.4425 21.3725 11.4944 21.3216 11.5367C21.2707 11.5789 21.2119 11.6106 21.1487 11.63L12.1487 14.55C12.1012 14.5698 12.0502 14.58 11.9987 14.58Z" fill="white"/>
<path d="M11.8387 14.58L11.1892 16.4716L11.5049 16.58H11.8387V14.58ZM2.83868 11.49L1.97466 13.2937L2.0794 13.3439L2.18923 13.3816L2.83868 11.49ZM3.15868 10.55L3.80141 8.65609L3.68988 8.61824L3.57466 8.59374L3.15868 10.55ZM11.9987 13.55L11.356 15.4439L11.9844 15.6572L12.6156 15.4525L11.9987 13.55ZM20.8487 10.68L20.2666 8.76658L20.2491 8.7719L20.2317 8.77754L20.8487 10.68ZM21.4787 11L23.3842 10.3924L23.376 10.3668L23.3672 10.3415L21.4787 11ZM21.1487 11.63L20.5632 9.71761L20.5473 9.72248L20.5315 9.72762L21.1487 11.63ZM12.1487 14.55L11.5315 12.6476L11.4543 12.6726L11.3795 12.7038L12.1487 14.55ZM11.9987 12.58H11.8387V16.58H11.9987V12.58ZM12.4881 12.6884L3.48814 9.59838L2.18923 13.3816L11.1892 16.4716L12.4881 12.6884ZM3.7027 9.68626C4.03377 9.84484 4.29519 10.1193 4.43746 10.4577L0.750072 12.008C0.987186 12.572 1.42289 13.0294 1.97466 13.2937L3.7027 9.68626ZM4.43746 10.4577C4.57972 10.7961 4.59296 11.175 4.47466 11.5225L0.688063 10.2334C0.490896 10.8126 0.512959 11.444 0.750072 12.008L4.43746 10.4577ZM4.47466 11.5225C4.35636 11.87 4.11474 12.162 3.79555 12.3433L1.81992 8.86528C1.28794 9.16746 0.885229 9.65423 0.688063 10.2334L4.47466 11.5225ZM3.79555 12.3433C3.47636 12.5246 3.10176 12.5826 2.7427 12.5063L3.57466 8.59374C2.97623 8.46649 2.3519 8.56309 1.81992 8.86528L3.79555 12.3433ZM2.51595 12.4439L11.356 15.4439L12.6414 11.6561L3.80141 8.65609L2.51595 12.4439ZM12.6156 15.4525L21.4656 12.5825L20.2317 8.77754L11.3817 11.6475L12.6156 15.4525ZM21.4308 12.5934C21.0626 12.7054 20.6654 12.6706 20.3224 12.4964L22.1338 8.93006C21.5559 8.63649 20.8867 8.57792 20.2666 8.76658L21.4308 12.5934ZM20.3224 12.4964C19.9793 12.3221 19.7169 12.0219 19.5902 11.6585L23.3672 10.3415C23.1537 9.7294 22.7118 9.22362 22.1338 8.93006L20.3224 12.4964ZM19.5732 11.6076C19.5129 11.4185 19.4908 11.2194 19.508 11.0217L23.4929 11.3689C23.5216 11.0394 23.4846 10.7075 23.3842 10.3924L19.5732 11.6076ZM19.508 11.0217C19.5252 10.824 19.5815 10.6317 19.6736 10.4559L23.2169 12.3119C23.3704 12.0189 23.4642 11.6984 23.4929 11.3689L19.508 11.0217ZM19.6736 10.4559C19.7656 10.2801 19.8917 10.1243 20.0444 9.9976L22.5988 13.0757C22.8534 12.8645 23.0634 12.6049 23.2169 12.3119L19.6736 10.4559ZM20.0444 9.9976C20.1971 9.87087 20.3735 9.7757 20.5632 9.71761L21.7342 13.5424C22.0504 13.4456 22.3443 13.287 22.5988 13.0757L20.0444 9.9976ZM20.5315 9.72762L11.5315 12.6476L12.7659 16.4524L21.7659 13.5324L20.5315 9.72762ZM11.3795 12.7038C11.5757 12.6221 11.7861 12.58 11.9987 12.58V16.58C12.3142 16.58 12.6266 16.5175 12.9179 16.3962L11.3795 12.7038Z" fill="white" mask="url(#path-3-inside-2_1023_5711)"/>
</svg>
