<svg width="24" height="24" viewBox="0 0 24 25" fill="none" xmlns="http://www.w3.org/2000/svg">
<g clip-path="url(#clip0_318_10347)">
<path d="M12 24.5C18.6274 24.5 24 19.1274 24 12.5C24 5.87258 18.6274 0.5 12 0.5C5.37258 0.5 0 5.87258 0 12.5C0 19.1274 5.37258 24.5 12 24.5Z" fill="#627EEA"/>
<path d="M12.375 3.5V10.1525L17.9978 12.665L12.375 3.5Z" fill="white" fill-opacity="0.602"/>
<path d="M12.3735 3.5L6.75 12.665L12.3735 10.1525V3.5Z" fill="white"/>
<path d="M12.375 16.976V21.4962L18.0015 13.712L12.375 16.976Z" fill="white" fill-opacity="0.602"/>
<path d="M12.3735 21.4962V16.9752L6.75 13.712L12.3735 21.4962Z" fill="white"/>
<path d="M12.375 15.9297L17.9978 12.665L12.375 10.154V15.9297Z" fill="white" fill-opacity="0.2"/>
<path d="M6.75 12.665L12.3735 15.9297V10.154L6.75 12.665Z" fill="white" fill-opacity="0.602"/>
</g>
<defs>
<clipPath id="clip0_318_10347">
<rect width="24" height="24" fill="white" transform="translate(0 0.5)"/>
</clipPath>
</defs>
</svg>
