<svg width="20" height="20" viewBox="0 0 24 25" fill="none" xmlns="http://www.w3.org/2000/svg">
<path d="M18.4301 19.0654C15.5701 19.0654 14.1401 16.2454 13.7201 15.2454H10.2801C9.86005 16.2454 8.43005 19.0654 5.57005 19.0654C1.93005 19.0654 1.93005 16.0654 1.93005 14.6554C1.93005 12.9854 4.82005 7.39536 5.15005 6.75536C5.191 6.67386 5.25388 6.60541 5.33161 6.55771C5.40935 6.51001 5.49885 6.48495 5.59005 6.48536H18.4101C18.5013 6.48495 18.5908 6.51001 18.6685 6.55771C18.7462 6.60541 18.8091 6.67386 18.8501 6.75536C19.1801 7.39536 22.0701 12.9854 22.0701 14.6554C22.0701 16.0854 22.0701 19.0654 18.4301 19.0654ZM9.94005 14.2754H14.0601C14.1644 14.2746 14.2662 14.3072 14.3508 14.3683C14.4353 14.4295 14.4981 14.516 14.5301 14.6154C14.5301 14.6154 15.7501 18.0954 18.4301 18.0954C20.8701 18.0954 21.0701 16.5454 21.0701 14.6854C21.0701 13.6854 19.3101 9.85536 18.0701 7.51536H5.89005C4.69005 9.85536 2.89005 13.6554 2.89005 14.6854C2.89005 16.5454 3.09005 18.0954 5.53005 18.0954C8.21005 18.0954 9.42005 14.6454 9.43005 14.6154C9.46374 14.5091 9.53261 14.4176 9.62533 14.3558C9.71804 14.294 9.82905 14.2656 9.94005 14.2754Z" fill="white"/>
<path d="M12 7.48537C11.8842 7.48734 11.7715 7.44825 11.6818 7.37503C11.5921 7.30181 11.5312 7.19919 11.51 7.08537C11.4096 6.47506 11.435 5.85068 11.5846 5.25054C11.7342 4.6504 12.0049 4.08716 12.38 3.59537C12.8974 3.04997 13.5312 2.62826 14.2341 2.36163C14.937 2.09501 15.691 1.99032 16.44 2.05537C16.5726 2.05537 16.6998 2.10805 16.7936 2.20182C16.8873 2.29559 16.94 2.42277 16.94 2.55537C16.94 2.68798 16.8873 2.81516 16.7936 2.90893C16.6998 3.0027 16.5726 3.05537 16.44 3.05537C15.8354 3.00189 15.2266 3.08362 14.6575 3.29463C14.0885 3.50565 13.5735 3.84066 13.15 4.27537C12.5897 5.0488 12.3529 6.01019 12.49 6.95537C12.5134 7.08527 12.4844 7.21914 12.4095 7.3278C12.3346 7.43645 12.2197 7.51106 12.09 7.53537L12 7.48537Z" fill="white"/>
</svg>
