<svg width="20" height="20" viewBox="0 0 24 25" fill="none" xmlns="http://www.w3.org/2000/svg">
<path d="M17.22 16.9854C17.0219 16.9828 16.8326 16.903 16.6925 16.7629C16.5524 16.6228 16.4726 16.4335 16.47 16.2354V4.32544C16.47 4.12653 16.549 3.93576 16.6896 3.79511C16.8303 3.65446 17.0211 3.57544 17.22 3.57544C17.4189 3.57544 17.6096 3.65446 17.7503 3.79511C17.891 3.93576 17.97 4.12653 17.97 4.32544V16.2754C17.9597 16.4673 17.8762 16.648 17.7366 16.7801C17.5971 16.9122 17.4121 16.9857 17.22 16.9854Z" fill="white"/>
<path d="M17.22 22.6354C16.296 22.6354 15.3927 22.3613 14.6245 21.8477C13.8563 21.3341 13.2577 20.6041 12.9046 19.7502C12.5514 18.8963 12.4595 17.9568 12.6405 17.0507C12.8215 16.1445 13.2673 15.3124 13.9214 14.6597C14.5755 14.007 15.4086 13.563 16.3151 13.3839C17.2217 13.2049 18.161 13.2988 19.0141 13.6538C19.8673 14.0088 20.5959 14.6089 21.1079 15.3782C21.6198 16.1475 21.892 17.0514 21.89 17.9754C21.89 18.5882 21.7692 19.195 21.5344 19.761C21.2996 20.3271 20.9554 20.8412 20.5216 21.2741C20.0878 21.7069 19.5729 22.05 19.0064 22.2836C18.4399 22.5172 17.8328 22.6367 17.22 22.6354ZM17.22 14.8054C16.5931 14.8054 15.9802 14.9913 15.4589 15.3397C14.9376 15.688 14.5313 16.1831 14.2913 16.7623C14.0514 17.3415 13.9886 17.9789 14.111 18.5938C14.2333 19.2088 14.5352 19.7736 14.9785 20.2169C15.4218 20.6603 15.9867 20.9622 16.6016 21.0845C17.2165 21.2068 17.8539 21.144 18.4331 20.9041C19.0124 20.6642 19.5075 20.2579 19.8558 19.7366C20.2041 19.2153 20.39 18.6024 20.39 17.9754C20.39 17.5591 20.308 17.1469 20.1487 16.7623C19.9894 16.3777 19.7559 16.0282 19.4616 15.7339C19.1672 15.4395 18.8177 15.206 18.4331 15.0467C18.0485 14.8874 17.6363 14.8054 17.22 14.8054Z" fill="white"/>
<path d="M6.30003 22.6354C5.37726 22.6295 4.47694 22.3503 3.7127 21.8332C2.94847 21.316 2.35459 20.584 2.00602 19.7296C1.65745 18.8751 1.56983 17.9366 1.75421 17.0324C1.93858 16.1283 2.3867 15.299 3.04199 14.6493C3.69728 13.9996 4.53036 13.5585 5.43608 13.3819C6.3418 13.2053 7.27955 13.3009 8.13095 13.6568C8.98236 14.0126 9.70926 14.6127 10.2199 15.3814C10.7305 16.15 11.002 17.0527 11 17.9754C10.9987 18.5904 10.876 19.1991 10.6388 19.7665C10.4017 20.3338 10.0548 20.8488 9.61808 21.2818C9.18138 21.7148 8.66346 22.0573 8.09406 22.2896C7.52466 22.5218 6.91498 22.6394 6.30003 22.6354ZM6.30003 14.8054C5.67306 14.8054 5.06017 14.9914 4.53887 15.3397C4.01756 15.688 3.61126 16.1831 3.37133 16.7623C3.1314 17.3416 3.06862 17.979 3.19094 18.5939C3.31325 19.2088 3.61516 19.7736 4.0585 20.217C4.50183 20.6603 5.06667 20.9622 5.68159 21.0845C6.29651 21.2068 6.93389 21.1441 7.51313 20.9041C8.09237 20.6642 8.58746 20.2579 8.93578 19.7366C9.28411 19.2153 9.47003 18.6024 9.47003 17.9754C9.46739 17.1355 9.13256 16.3307 8.53864 15.7368C7.94472 15.1429 7.13995 14.8081 6.30003 14.8054Z" fill="white"/>
<path d="M6.30008 16.9855H6.16008C5.96549 16.949 5.79321 16.8371 5.68081 16.6741C5.56841 16.5111 5.52501 16.3103 5.56008 16.1155C5.56008 16.0355 7.26008 7.62549 17.2201 7.62549C17.419 7.62549 17.6098 7.70451 17.7504 7.84516C17.8911 7.98581 17.9701 8.17658 17.9701 8.37549C17.9701 8.5744 17.8911 8.76517 17.7504 8.90582C17.6098 9.04647 17.419 9.12549 17.2201 9.12549C8.53008 9.10549 7.10008 16.0755 7.00008 16.3755C6.96884 16.541 6.8828 16.6912 6.75582 16.8018C6.62884 16.9125 6.4683 16.9772 6.30008 16.9855Z" fill="white"/>
</svg>
