<svg width="24" height="24" viewBox="0 0 24 25" fill="none" xmlns="http://www.w3.org/2000/svg">
<path d="M18.1404 22.3951C17.2604 22.6551 16.2204 22.7751 15.0004 22.7751H9.00035C7.78035 22.7751 6.74035 22.6551 5.86035 22.3951C6.08035 19.7951 8.75035 17.7451 12.0004 17.7451C15.2504 17.7451 17.9204 19.7951 18.1404 22.3951Z" stroke="white" stroke-width="1.5" stroke-linecap="round" stroke-linejoin="round"/>
<path d="M15 2.77539H9C4 2.77539 2 4.77539 2 9.77539V15.7754C2 19.5554 3.14 21.6254 5.86 22.3954C6.08 19.7954 8.75 17.7454 12 17.7454C15.25 17.7454 17.92 19.7954 18.14 22.3954C20.86 21.6254 22 19.5554 22 15.7754V9.77539C22 4.77539 20 2.77539 15 2.77539ZM12 14.9454C10.02 14.9454 8.42 13.3354 8.42 11.3554C8.42 9.37541 10.02 7.77539 12 7.77539C13.98 7.77539 15.58 9.37541 15.58 11.3554C15.58 13.3354 13.98 14.9454 12 14.9454Z" stroke="white" stroke-width="1.5" stroke-linecap="round" stroke-linejoin="round"/>
<path d="M15.58 11.3554C15.58 13.3354 13.98 14.9454 12 14.9454C10.02 14.9454 8.42 13.3354 8.42 11.3554C8.42 9.37541 10.02 7.77539 12 7.77539C13.98 7.77539 15.58 9.37541 15.58 11.3554Z" stroke="white" stroke-width="1.5" stroke-linecap="round" stroke-linejoin="round"/>
</svg>
