<svg width="24" height="24" viewBox="0 0 23 22" fill="none" xmlns="http://www.w3.org/2000/svg">
<path fill-rule="evenodd" clip-rule="evenodd" d="M5.01 7.75C3.35422 7.75 2 9.10422 2 10.76V17.49C2 19.1458 3.35422 20.5 5.01 20.5H16.49C18.1458 20.5 19.5 19.1458 19.5 17.49V17.05H18.35C16.9405 17.05 15.5723 16.0193 15.443 14.4967C15.3622 13.6345 15.6905 12.829 16.2593 12.27C16.7709 11.7481 17.4724 11.45 18.23 11.45H19.5V10.76C19.5 9.10422 18.1458 7.75 16.49 7.75H5.01ZM0.5 10.76C0.5 8.2758 2.52578 6.25 5.01 6.25H16.49C18.9742 6.25 21 8.2758 21 10.76V12.2C21 12.6142 20.6642 12.95 20.25 12.95H18.23C17.8709 12.95 17.5552 13.0892 17.3274 13.3232L17.3139 13.3367C17.0478 13.5964 16.8992 13.9662 16.9366 14.3589L16.9375 14.3677L16.9374 14.3677C16.9903 15.0027 17.6009 15.55 18.35 15.55H20.25C20.6642 15.55 21 15.8858 21 16.3V17.49C21 19.9742 18.9742 22 16.49 22H5.01C2.52578 22 0.5 19.9742 0.5 17.49V10.76Z" fill="white"/>
<path fill-rule="evenodd" clip-rule="evenodd" d="M12.85 3.20001C12.85 2.39248 12.043 1.8381 11.2958 2.12129L3.35542 5.12144C2.53865 5.43065 2 6.21046 2 7.09002V11.66C2 12.0742 1.66421 12.41 1.25 12.41C0.835786 12.41 0.5 12.0742 0.5 11.66V7.09002C0.5 5.5897 1.42154 4.24939 2.82458 3.71851L10.7642 0.718665C10.764 0.718719 10.7643 0.71861 10.7642 0.718665C12.4969 0.0622333 14.35 1.34768 14.35 3.20001V6.99999C14.35 7.41421 14.0142 7.74999 13.6 7.74999C13.1858 7.74999 12.85 7.41421 12.85 6.99999V3.20001Z" fill="white"/>
<path fill-rule="evenodd" clip-rule="evenodd" d="M18.2288 12.9502C17.8698 12.9502 17.554 13.0894 17.3262 13.3234L17.3127 13.3369C17.0467 13.5966 16.8981 13.9664 16.9355 14.3591L16.9363 14.3679L16.9363 14.3679C16.9892 15.0029 17.5997 15.5502 18.3488 15.5502H20.2916C20.4533 15.5397 20.5588 15.4133 20.5588 15.2802V13.2202C20.5588 13.087 20.4533 12.9606 20.2916 12.9502H18.2288ZM16.2582 12.2701C16.7698 11.7483 17.4712 11.4502 18.2288 11.4502H20.3088C20.3178 11.4502 20.3267 11.4504 20.3356 11.4507C21.2886 11.4847 22.0588 12.2559 22.0588 13.2202V15.2802C22.0588 16.2445 21.2886 17.0157 20.3356 17.0497C20.3267 17.05 20.3178 17.0502 20.3088 17.0502H18.3488C16.9393 17.0502 15.5712 16.0195 15.4418 14.4969C15.3611 13.6347 15.6894 12.8292 16.2582 12.2701Z" fill="white"/>
<path fill-rule="evenodd" clip-rule="evenodd" d="M5 11.25C5 10.8358 5.33579 10.5 5.75 10.5H12.75C13.1642 10.5 13.5 10.8358 13.5 11.25C13.5 11.6642 13.1642 12 12.75 12H5.75C5.33579 12 5 11.6642 5 11.25Z" fill="white"/>
</svg>
