<svg width="18" height="21" viewBox="0 0 18 21" fill="none" xmlns="http://www.w3.org/2000/svg">
<path d="M16.6948 17.5H16.6048C16.4083 17.4749 16.2294 17.3742 16.1061 17.2191C15.9828 17.0641 15.9249 16.8671 15.9448 16.67L16.6948 17.5Z" fill="white" stroke="#9DC7F1" stroke-width="2"/>
<mask id="path-2-inside-1_994_6414" fill="white">
<path d="M16.6945 17.5H0.814453C0.615541 17.5 0.424775 17.421 0.284123 17.2803C0.143471 17.1397 0.0644531 16.9489 0.0644531 16.75C0.0644531 16.5511 0.143471 16.3603 0.284123 16.2197C0.424775 16.079 0.615541 16 0.814453 16H16.6945C16.8934 16 17.0841 16.079 17.2248 16.2197C17.3654 16.3603 17.4445 16.5511 17.4445 16.75C17.4445 16.9489 17.3654 17.1397 17.2248 17.2803C17.0841 17.421 16.8934 17.5 16.6945 17.5Z"/>
</mask>
<path d="M16.6945 17.5H0.814453C0.615541 17.5 0.424775 17.421 0.284123 17.2803C0.143471 17.1397 0.0644531 16.9489 0.0644531 16.75C0.0644531 16.5511 0.143471 16.3603 0.284123 16.2197C0.424775 16.079 0.615541 16 0.814453 16H16.6945C16.8934 16 17.0841 16.079 17.2248 16.2197C17.3654 16.3603 17.4445 16.5511 17.4445 16.75C17.4445 16.9489 17.3654 17.1397 17.2248 17.2803C17.0841 17.421 16.8934 17.5 16.6945 17.5Z" fill="white"/>
<path d="M16.6945 15.5H0.814453V19.5H16.6945V15.5ZM0.814453 15.5C1.14597 15.5 1.46391 15.6317 1.69834 15.8661L-1.13009 18.6945C-0.614363 19.2103 0.0851113 19.5 0.814453 19.5V15.5ZM1.69834 15.8661C1.93276 16.1005 2.06445 16.4185 2.06445 16.75H-1.93555C-1.93555 17.4793 -1.64582 18.1788 -1.13009 18.6945L1.69834 15.8661ZM2.06445 16.75C2.06445 17.0815 1.93276 17.3995 1.69834 17.6339L-1.13009 14.8055C-1.64582 15.3212 -1.93555 16.0207 -1.93555 16.75H2.06445ZM1.69834 17.6339C1.46391 17.8683 1.14597 18 0.814453 18V14C0.0851113 14 -0.614363 14.2897 -1.13009 14.8055L1.69834 17.6339ZM0.814453 18H16.6945V14H0.814453V18ZM16.6945 18C16.3629 18 16.045 17.8683 15.8106 17.6339L18.639 14.8055C18.1233 14.2897 17.4238 14 16.6945 14V18ZM15.8106 17.6339C15.5762 17.3995 15.4445 17.0815 15.4445 16.75H19.4445C19.4445 16.0206 19.1547 15.3212 18.639 14.8055L15.8106 17.6339ZM15.4445 16.75C15.4445 16.4185 15.5762 16.1005 15.8106 15.8661L18.639 18.6945C19.1547 18.1788 19.4445 17.4794 19.4445 16.75H15.4445ZM15.8106 15.8661C16.045 15.6317 16.3629 15.5 16.6945 15.5V19.5C17.4238 19.5 18.1233 19.2103 18.639 18.6945L15.8106 15.8661Z" fill="#9DC7F1" mask="url(#path-2-inside-1_994_6414)"/>
<mask id="path-4-inside-2_994_6414" fill="white">
<path d="M8.75391 3.63C8.55499 3.63 8.36423 3.55098 8.22358 3.41033C8.08292 3.26968 8.00391 3.07891 8.00391 2.88V0.75C8.00391 0.551088 8.08292 0.360322 8.22358 0.21967C8.36423 0.0790177 8.55499 0 8.75391 0C8.95282 0 9.14358 0.0790177 9.28424 0.21967C9.42489 0.360322 9.50391 0.551088 9.50391 0.75V2.88C9.50391 3.07891 9.42489 3.26968 9.28424 3.41033C9.14358 3.55098 8.95282 3.63 8.75391 3.63Z"/>
</mask>
<path d="M8.75391 3.63C8.55499 3.63 8.36423 3.55098 8.22358 3.41033C8.08292 3.26968 8.00391 3.07891 8.00391 2.88V0.75C8.00391 0.551088 8.08292 0.360322 8.22358 0.21967C8.36423 0.0790177 8.55499 0 8.75391 0C8.95282 0 9.14358 0.0790177 9.28424 0.21967C9.42489 0.360322 9.50391 0.551088 9.50391 0.75V2.88C9.50391 3.07891 9.42489 3.26968 9.28424 3.41033C9.14358 3.55098 8.95282 3.63 8.75391 3.63Z" fill="white"/>
<path d="M8.75391 0V-2V0ZM8.75391 1.63C9.08543 1.63 9.40337 1.7617 9.63779 1.99612L6.80936 4.82454C7.32509 5.34027 8.02456 5.63 8.75391 5.63V1.63ZM9.63779 1.99612C9.87221 2.23054 10.0039 2.54848 10.0039 2.88H6.00391C6.00391 3.60935 6.29364 4.30882 6.80936 4.82454L9.63779 1.99612ZM10.0039 2.88V0.75H6.00391V2.88H10.0039ZM10.0039 0.75C10.0039 1.08152 9.87221 1.39946 9.63779 1.63388L6.80936 -1.19454C6.29364 -0.67882 6.00391 0.020652 6.00391 0.75H10.0039ZM9.63779 1.63388C9.40337 1.8683 9.08543 2 8.75391 2V-2C8.02456 -2 7.32509 -1.71027 6.80936 -1.19454L9.63779 1.63388ZM8.75391 2C8.42238 2 8.10444 1.8683 7.87002 1.63388L10.6984 -1.19454C10.1827 -1.71027 9.48325 -2 8.75391 -2V2ZM7.87002 1.63388C7.6356 1.39946 7.50391 1.08152 7.50391 0.75H11.5039C11.5039 0.020652 11.2142 -0.67882 10.6984 -1.19454L7.87002 1.63388ZM7.50391 0.75V2.88H11.5039V0.75H7.50391ZM7.50391 2.88C7.50391 2.54848 7.6356 2.23054 7.87002 1.99612L10.6984 4.82454C11.2142 4.30882 11.5039 3.60935 11.5039 2.88H7.50391ZM7.87002 1.99612C8.10444 1.7617 8.42239 1.63 8.75391 1.63V5.63C9.48325 5.63 10.1827 5.34027 10.6984 4.82454L7.87002 1.99612Z" fill="#9DC7F1" mask="url(#path-4-inside-2_994_6414)"/>
<path d="M8.75391 20.5C7.75934 20.5 6.80552 20.1049 6.10226 19.4017C5.39899 18.6984 5.00391 17.7446 5.00391 16.75C5.00391 16.5511 5.08292 16.3603 5.22358 16.2197C5.36423 16.079 5.55499 16 5.75391 16C5.95282 16 6.14358 16.079 6.28424 16.2197C6.42489 16.3603 6.50391 16.5511 6.50391 16.75C6.50391 17.3467 6.74096 17.919 7.16292 18.341C7.58487 18.7629 8.15717 19 8.75391 19C9.35064 19 9.92294 18.7629 10.3449 18.341C10.7669 17.919 11.0039 17.3467 11.0039 16.75C11.0039 16.5511 11.0829 16.3603 11.2236 16.2197C11.3642 16.079 11.555 16 11.7539 16C11.9528 16 12.1436 16.079 12.2842 16.2197C12.4249 16.3603 12.5039 16.5511 12.5039 16.75C12.5039 17.7446 12.1088 18.6984 11.4056 19.4017C10.7023 20.1049 9.74847 20.5 8.75391 20.5Z" fill="white"/>
</svg>
