<svg width="20" height="16" viewBox="0 0 20 16" fill="none" xmlns="http://www.w3.org/2000/svg">
<mask id="path-1-inside-1_994_9570" fill="white">
<path d="M16 15.5H4C3.07174 15.5 2.1815 15.1313 1.52513 14.4749C0.868749 13.8185 0.5 12.9283 0.5 12V4C0.5 3.07174 0.868749 2.1815 1.52513 1.52513C2.1815 0.868749 3.07174 0.5 4 0.5H16C16.9283 0.5 17.8185 0.868749 18.4749 1.52513C19.1313 2.1815 19.5 3.07174 19.5 4V12C19.5 12.9283 19.1313 13.8185 18.4749 14.4749C17.8185 15.1313 16.9283 15.5 16 15.5ZM4 1.5C3.33696 1.5 2.70107 1.76339 2.23223 2.23223C1.76339 2.70107 1.5 3.33696 1.5 4V12C1.5 12.663 1.76339 13.2989 2.23223 13.7678C2.70107 14.2366 3.33696 14.5 4 14.5H16C16.3283 14.5 16.6534 14.4353 16.9567 14.3097C17.26 14.1841 17.5356 13.9999 17.7678 13.7678C17.9999 13.5356 18.1841 13.26 18.3097 12.9567C18.4353 12.6534 18.5 12.3283 18.5 12V4C18.5 3.6717 18.4353 3.34661 18.3097 3.04329C18.1841 2.73998 17.9999 2.46438 17.7678 2.23223C17.5356 2.00009 17.26 1.81594 16.9567 1.6903C16.6534 1.56466 16.3283 1.5 16 1.5H4Z"/>
</mask>
<path d="M16 15.5H4C3.07174 15.5 2.1815 15.1313 1.52513 14.4749C0.868749 13.8185 0.5 12.9283 0.5 12V4C0.5 3.07174 0.868749 2.1815 1.52513 1.52513C2.1815 0.868749 3.07174 0.5 4 0.5H16C16.9283 0.5 17.8185 0.868749 18.4749 1.52513C19.1313 2.1815 19.5 3.07174 19.5 4V12C19.5 12.9283 19.1313 13.8185 18.4749 14.4749C17.8185 15.1313 16.9283 15.5 16 15.5ZM4 1.5C3.33696 1.5 2.70107 1.76339 2.23223 2.23223C1.76339 2.70107 1.5 3.33696 1.5 4V12C1.5 12.663 1.76339 13.2989 2.23223 13.7678C2.70107 14.2366 3.33696 14.5 4 14.5H16C16.3283 14.5 16.6534 14.4353 16.9567 14.3097C17.26 14.1841 17.5356 13.9999 17.7678 13.7678C17.9999 13.5356 18.1841 13.26 18.3097 12.9567C18.4353 12.6534 18.5 12.3283 18.5 12V4C18.5 3.6717 18.4353 3.34661 18.3097 3.04329C18.1841 2.73998 17.9999 2.46438 17.7678 2.23223C17.5356 2.00009 17.26 1.81594 16.9567 1.6903C16.6534 1.56466 16.3283 1.5 16 1.5H4Z" fill="white"/>
<path d="M0.5 12H-1.5H0.5ZM4 0.5V-1.5V0.5ZM4 1.5V-0.5V1.5ZM1.5 4H-0.5H1.5ZM1.5 12H-0.5H1.5ZM16 14.5V12.5V14.5ZM18.5 4H16.5H18.5ZM16 1.5V-0.5V1.5ZM16 13.5H4V17.5H16V13.5ZM4 13.5C3.60217 13.5 3.22064 13.342 2.93934 13.0607L0.110913 15.8891C1.14236 16.9205 2.54131 17.5 4 17.5V13.5ZM2.93934 13.0607C2.65804 12.7794 2.5 12.3978 2.5 12H-1.5C-1.5 13.4587 -0.920538 14.8576 0.110913 15.8891L2.93934 13.0607ZM2.5 12V4H-1.5V12H2.5ZM2.5 4C2.5 3.60218 2.65804 3.22064 2.93934 2.93934L0.110913 0.110913C-0.920537 1.14236 -1.5 2.54131 -1.5 4H2.5ZM2.93934 2.93934C3.22064 2.65804 3.60218 2.5 4 2.5V-1.5C2.54131 -1.5 1.14236 -0.920537 0.110913 0.110913L2.93934 2.93934ZM4 2.5H16V-1.5H4V2.5ZM16 2.5C16.3978 2.5 16.7794 2.65804 17.0607 2.93934L19.8891 0.110913C18.8576 -0.920537 17.4587 -1.5 16 -1.5V2.5ZM17.0607 2.93934C17.342 3.22064 17.5 3.60217 17.5 4H21.5C21.5 2.54131 20.9205 1.14236 19.8891 0.110913L17.0607 2.93934ZM17.5 4V12H21.5V4H17.5ZM17.5 12C17.5 12.3978 17.342 12.7794 17.0607 13.0607L19.8891 15.8891C20.9205 14.8576 21.5 13.4587 21.5 12H17.5ZM17.0607 13.0607C16.7794 13.342 16.3978 13.5 16 13.5V17.5C17.4587 17.5 18.8576 16.9205 19.8891 15.8891L17.0607 13.0607ZM4 -0.5C2.80653 -0.5 1.66193 -0.0258942 0.818019 0.818019L3.64645 3.64645C3.74021 3.55268 3.86739 3.5 4 3.5V-0.5ZM0.818019 0.818019C-0.0258942 1.66193 -0.5 2.80653 -0.5 4H3.5C3.5 3.86739 3.55268 3.74021 3.64645 3.64645L0.818019 0.818019ZM-0.5 4V12H3.5V4H-0.5ZM-0.5 12C-0.5 13.1935 -0.0258942 14.3381 0.818019 15.182L3.64645 12.3536C3.55268 12.2598 3.5 12.1326 3.5 12H-0.5ZM0.818019 15.182C1.66193 16.0259 2.80653 16.5 4 16.5V12.5C3.86739 12.5 3.74021 12.4473 3.64645 12.3536L0.818019 15.182ZM4 16.5H16V12.5H4V16.5ZM16 16.5C16.591 16.5 17.1761 16.3836 17.7221 16.1575L16.1913 12.4619C16.1307 12.4871 16.0657 12.5 16 12.5V16.5ZM17.7221 16.1575C18.268 15.9313 18.7641 15.5998 19.182 15.182L16.3536 12.3536C16.3071 12.4 16.252 12.4368 16.1913 12.4619L17.7221 16.1575ZM19.182 15.182C19.5998 14.7641 19.9313 14.268 20.1575 13.7221L16.4619 12.1913C16.4368 12.252 16.4 12.3071 16.3536 12.3536L19.182 15.182ZM20.1575 13.7221C20.3836 13.1761 20.5 12.591 20.5 12H16.5C16.5 12.0657 16.4871 12.1307 16.4619 12.1913L20.1575 13.7221ZM20.5 12V4H16.5V12H20.5ZM20.5 4C20.5 3.40905 20.3836 2.82389 20.1575 2.27792L16.4619 3.80866C16.4871 3.86932 16.5 3.93434 16.5 4H20.5ZM20.1575 2.27792C19.9313 1.73196 19.5998 1.23589 19.182 0.818019L16.3536 3.64645C16.4 3.69287 16.4368 3.74799 16.4619 3.80866L20.1575 2.27792ZM19.182 0.818019C18.7641 0.400157 18.268 0.0686886 17.7221 -0.157458L16.1913 3.53806C16.252 3.56319 16.3071 3.60002 16.3536 3.64645L19.182 0.818019ZM17.7221 -0.157458C17.1761 -0.383605 16.5909 -0.5 16 -0.5V3.5C16.0657 3.5 16.1307 3.51293 16.1913 3.53806L17.7221 -0.157458ZM16 -0.5H4V3.5H16V-0.5Z" fill="white" mask="url(#path-1-inside-1_994_9570)"/>
<mask id="path-3-inside-2_994_9570" fill="white">
<path d="M10.0006 10.58H9.84064L0.840636 7.49C0.73028 7.43714 0.64314 7.34564 0.595718 7.23284C0.548295 7.12004 0.543882 6.99377 0.583316 6.87793C0.622749 6.7621 0.70329 6.66474 0.809687 6.60431C0.916084 6.54387 1.04095 6.52455 1.16064 6.55L10.0006 9.55L18.8506 6.68C18.9766 6.64166 19.1126 6.65356 19.23 6.71321C19.3475 6.77286 19.4373 6.87563 19.4806 7C19.5007 7.06302 19.5081 7.1294 19.5024 7.1953C19.4966 7.2612 19.4779 7.32531 19.4472 7.3839C19.4165 7.4425 19.3745 7.49443 19.3236 7.53667C19.2727 7.57891 19.2139 7.61063 19.1506 7.63L10.1506 10.55C10.1031 10.5698 10.0521 10.58 10.0006 10.58Z"/>
</mask>
<path d="M10.0006 10.58H9.84064L0.840636 7.49C0.73028 7.43714 0.64314 7.34564 0.595718 7.23284C0.548295 7.12004 0.543882 6.99377 0.583316 6.87793C0.622749 6.7621 0.70329 6.66474 0.809687 6.60431C0.916084 6.54387 1.04095 6.52455 1.16064 6.55L10.0006 9.55L18.8506 6.68C18.9766 6.64166 19.1126 6.65356 19.23 6.71321C19.3475 6.77286 19.4373 6.87563 19.4806 7C19.5007 7.06302 19.5081 7.1294 19.5024 7.1953C19.4966 7.2612 19.4779 7.32531 19.4472 7.3839C19.4165 7.4425 19.3745 7.49443 19.3236 7.53667C19.2727 7.57891 19.2139 7.61063 19.1506 7.63L10.1506 10.55C10.1031 10.5698 10.0521 10.58 10.0006 10.58Z" fill="white"/>
<path d="M9.84064 10.58L9.19118 12.4716L9.50686 12.58H9.84064V10.58ZM0.840636 7.49L-0.0233821 9.29374L0.0813485 9.3439L0.191182 9.38161L0.840636 7.49ZM1.16064 6.55L1.80337 4.65609L1.69183 4.61824L1.57662 4.59374L1.16064 6.55ZM10.0006 9.55L9.35791 11.4439L9.98633 11.6572L10.6176 11.4525L10.0006 9.55ZM18.8506 6.68L18.2685 4.76658L18.2511 4.7719L18.2337 4.77754L18.8506 6.68ZM19.4806 7L21.3861 6.39239L21.378 6.36682L21.3691 6.34149L19.4806 7ZM19.1506 7.63L18.5652 5.71761L18.5493 5.72248L18.5334 5.72762L19.1506 7.63ZM10.1506 10.55L9.53342 8.64762L9.45627 8.67265L9.3814 8.70384L10.1506 10.55ZM10.0006 8.58H9.84064V12.58H10.0006V8.58ZM10.4901 8.68838L1.49009 5.59838L0.191182 9.38161L9.19118 12.4716L10.4901 8.68838ZM1.70465 5.68626C2.03572 5.84484 2.29714 6.11933 2.43941 6.45773L-1.24797 8.00795C-1.01086 8.57196 -0.575158 9.02943 -0.0233821 9.29374L1.70465 5.68626ZM2.43941 6.45773C2.58168 6.79613 2.59492 7.17495 2.47662 7.52246L-1.30998 6.2334C-1.50715 6.81258 -1.48509 7.44395 -1.24797 8.00795L2.43941 6.45773ZM2.47662 7.52246C2.35832 7.86997 2.11669 8.16203 1.7975 8.34334L-0.178128 4.86528C-0.710111 5.16746 -1.11282 5.65423 -1.30998 6.2334L2.47662 7.52246ZM1.7975 8.34334C1.47831 8.52464 1.10371 8.58261 0.744655 8.50626L1.57662 4.59374C0.978184 4.46649 0.353858 4.56309 -0.178128 4.86528L1.7975 8.34334ZM0.517906 8.44391L9.35791 11.4439L10.6434 7.65609L1.80337 4.65609L0.517906 8.44391ZM10.6176 11.4525L19.4676 8.58246L18.2337 4.77754L9.38368 7.64754L10.6176 11.4525ZM19.4327 8.59341C19.0646 8.70541 18.6674 8.67064 18.3243 8.49637L20.1358 4.93006C19.5578 4.63649 18.8887 4.57792 18.2685 4.76658L19.4327 8.59341ZM18.3243 8.49637C17.9812 8.3221 17.7189 8.02185 17.5922 7.65851L21.3691 6.34149C21.1557 5.7294 20.7137 5.22362 20.1358 4.93006L18.3243 8.49637ZM17.5752 7.60761C17.5149 7.41854 17.4927 7.21939 17.5099 7.02169L21.4948 7.36891C21.5235 7.03942 21.4866 6.7075 21.3861 6.39239L17.5752 7.60761ZM17.5099 7.02169C17.5272 6.824 17.5834 6.63168 17.6755 6.45589L21.2188 8.31192C21.3723 8.01893 21.4661 7.69841 21.4948 7.36891L17.5099 7.02169ZM17.6755 6.45589C17.7676 6.2801 17.8936 6.12433 18.0464 5.9976L20.6008 9.07574C20.8553 8.86452 21.0654 8.6049 21.2188 8.31192L17.6755 6.45589ZM18.0464 5.9976C18.1991 5.87087 18.3754 5.7757 18.5652 5.71761L19.7361 9.54239C20.0524 9.44557 20.3463 9.28695 20.6008 9.07574L18.0464 5.9976ZM18.5334 5.72762L9.53342 8.64762L10.7679 12.4524L19.7679 9.53238L18.5334 5.72762ZM9.3814 8.70384C9.57762 8.62209 9.78808 8.58 10.0006 8.58V12.58C10.3162 12.58 10.6286 12.5175 10.9199 12.3962L9.3814 8.70384Z" fill="white" mask="url(#path-3-inside-2_994_9570)"/>
</svg>
