<svg width="27" height="27" viewBox="0 0 27 27" fill="none" xmlns="http://www.w3.org/2000/svg">
<path fill-rule="evenodd" clip-rule="evenodd" d="M26.1696 13.8032C26.1696 12.8577 26.0848 11.9487 25.9272 11.0759H13.3696V16.2335H20.5454C20.2363 17.9002 19.2969 19.3123 17.8848 20.2577V23.6032H22.1939C24.7151 21.282 26.1696 17.8638 26.1696 13.8032Z" fill="#1279F2"/>
<path fill-rule="evenodd" clip-rule="evenodd" d="M13.3697 26.8332C16.9697 26.8332 19.9879 25.6393 22.194 23.6029L17.8849 20.2574C16.691 21.0574 15.1637 21.5302 13.3697 21.5302C9.89701 21.5302 6.95762 19.1847 5.90913 16.0332H1.45459V19.4877C3.64853 23.8453 8.15762 26.8332 13.3697 26.8332Z" fill="#2BC153"/>
<path fill-rule="evenodd" clip-rule="evenodd" d="M5.90935 16.0332C5.64268 15.2332 5.49117 14.3786 5.49117 13.4998C5.49117 12.6211 5.64268 11.7665 5.90935 10.9665V7.51196H1.4548C0.551773 9.31196 0.0366211 11.3483 0.0366211 13.4998C0.0366211 15.6514 0.551773 17.6877 1.4548 19.4877L5.90935 16.0332Z" fill="#FBBC05"/>
<path fill-rule="evenodd" clip-rule="evenodd" d="M13.3697 5.46978C15.3273 5.46978 17.0849 6.14251 18.4667 7.46372L22.291 3.63948C19.9819 1.48796 16.9637 0.166748 13.3697 0.166748C8.15762 0.166748 3.64853 3.15463 1.45459 7.5122L5.90913 10.9667C6.95762 7.81523 9.89701 5.46978 13.3697 5.46978Z" fill="#FF2525"/>
</svg>
