<svg width="20" height="20" viewBox="0 0 20 20" fill="none" xmlns="http://www.w3.org/2000/svg">
<mask id="path-1-inside-1_994_14013" fill="white">
<path d="M10.0004 19.83C8.05138 19.83 6.14619 19.2518 4.52594 18.1686C2.90568 17.0854 1.6432 15.5458 0.898264 13.7448C0.153332 11.9438 -0.0405598 9.96226 0.341128 8.051C0.722817 6.13975 1.66293 4.38468 3.04248 3.00793C4.42202 1.63119 6.179 0.694645 8.09102 0.316842C10.0031 -0.0609607 11.9842 0.136958 13.7837 0.885549C15.5832 1.63414 17.1202 2.89975 18.2001 4.5222C19.28 6.14466 19.8543 8.05102 19.8504 10C19.8424 12.6081 18.8015 15.1068 16.9554 16.9492C15.1093 18.7915 12.6085 19.8274 10.0004 19.83ZM10.0004 1.13001C8.25086 1.13001 6.5406 1.64856 5.08566 2.62013C3.63072 3.59169 2.49639 4.9727 1.82597 6.58866C1.15555 8.20462 0.979129 9.98303 1.31899 11.6992C1.65885 13.4154 2.49975 14.9923 3.73544 16.2308C4.97114 17.4693 6.54619 18.3138 8.2616 18.6575C9.97701 19.0012 11.7558 18.8288 13.3733 18.1621C14.9908 17.4953 16.3743 16.3641 17.3492 14.9113C18.324 13.4586 18.8464 11.7495 18.8504 10C18.8517 8.8365 18.6238 7.68412 18.1798 6.60867C17.7357 5.53322 17.0842 4.55577 16.2624 3.73211C15.4406 2.90846 14.4646 2.25473 13.3902 1.80826C12.3157 1.36179 11.1639 1.13132 10.0004 1.13001Z"/>
</mask>
<path d="M10.0004 19.83C8.05138 19.83 6.14619 19.2518 4.52594 18.1686C2.90568 17.0854 1.6432 15.5458 0.898264 13.7448C0.153332 11.9438 -0.0405598 9.96226 0.341128 8.051C0.722817 6.13975 1.66293 4.38468 3.04248 3.00793C4.42202 1.63119 6.179 0.694645 8.09102 0.316842C10.0031 -0.0609607 11.9842 0.136958 13.7837 0.885549C15.5832 1.63414 17.1202 2.89975 18.2001 4.5222C19.28 6.14466 19.8543 8.05102 19.8504 10C19.8424 12.6081 18.8015 15.1068 16.9554 16.9492C15.1093 18.7915 12.6085 19.8274 10.0004 19.83ZM10.0004 1.13001C8.25086 1.13001 6.5406 1.64856 5.08566 2.62013C3.63072 3.59169 2.49639 4.9727 1.82597 6.58866C1.15555 8.20462 0.979129 9.98303 1.31899 11.6992C1.65885 13.4154 2.49975 14.9923 3.73544 16.2308C4.97114 17.4693 6.54619 18.3138 8.2616 18.6575C9.97701 19.0012 11.7558 18.8288 13.3733 18.1621C14.9908 17.4953 16.3743 16.3641 17.3492 14.9113C18.324 13.4586 18.8464 11.7495 18.8504 10C18.8517 8.8365 18.6238 7.68412 18.1798 6.60867C17.7357 5.53322 17.0842 4.55577 16.2624 3.73211C15.4406 2.90846 14.4646 2.25473 13.3902 1.80826C12.3157 1.36179 11.1639 1.13132 10.0004 1.13001Z" fill="white"/>
<path d="M10.0004 19.83L10.0004 21.83L10.0024 21.83L10.0004 19.83ZM19.8504 10L21.8504 10.0061L21.8504 10.0041L19.8504 10ZM18.8504 10L20.8504 10.0045L20.8504 10.0023L18.8504 10ZM10.0004 17.83C8.44712 17.83 6.92877 17.3692 5.6375 16.5059L3.41437 19.8312C5.36361 21.1344 7.65564 21.83 10.0004 21.83L10.0004 17.83ZM5.6375 16.5059C4.34623 15.6427 3.34009 14.4157 2.74641 12.9804L-0.949885 14.5092C-0.0536979 16.6759 1.46513 18.5281 3.41437 19.8312L5.6375 16.5059ZM2.74641 12.9804C2.15274 11.5451 1.99821 9.96586 2.3024 8.44268L-1.62014 7.65933C-2.07933 9.95866 -1.84607 12.3425 -0.949885 14.5092L2.74641 12.9804ZM2.3024 8.44268C2.60659 6.91949 3.35581 5.52079 4.45525 4.42358L1.6297 1.59228C-0.0299605 3.24857 -1.16096 5.36 -1.62014 7.65933L2.3024 8.44268ZM4.45525 4.42358C5.55469 3.32638 6.95491 2.58 8.47871 2.27891L7.70333 -1.64522C5.40308 -1.19071 3.28936 -0.0640071 1.6297 1.59228L4.45525 4.42358ZM8.47871 2.27891C10.0025 1.97781 11.5814 2.13555 13.0155 2.73214L14.5519 -0.961042C12.387 -1.86163 10.0036 -2.09974 7.70333 -1.64522L8.47871 2.27891ZM13.0155 2.73214C14.4496 3.32873 15.6745 4.33737 16.5352 5.63039L19.865 3.41402C18.5658 1.46214 16.7167 -0.0604528 14.5519 -0.961042L13.0155 2.73214ZM16.5352 5.63039C17.3958 6.92341 17.8535 8.44269 17.8504 9.99595L21.8504 10.0041C21.8551 7.65934 21.1642 5.36591 19.865 3.41402L16.5352 5.63039ZM17.8504 9.99393C17.8441 12.073 17.0143 14.0649 15.5426 15.5335L18.3682 18.3648C20.5887 16.1488 21.8408 13.1432 21.8504 10.0061L17.8504 9.99393ZM15.5426 15.5335C14.071 17.0022 12.0774 17.8279 9.99836 17.83L10.0024 21.83C13.1395 21.8268 16.1476 20.5809 18.3682 18.3648L15.5426 15.5335ZM10.0004 -0.86999C7.85549 -0.869985 5.75873 -0.234258 3.97499 0.956875L6.19634 4.28338C7.32248 3.53137 8.64624 3.13001 10.0004 3.13001L10.0004 -0.86999ZM3.97499 0.956875C2.19125 2.14801 0.80057 3.8411 -0.0213561 5.82225L3.6733 7.35507C4.19221 6.10429 5.0702 5.03538 6.19634 4.28338L3.97499 0.956875ZM-0.0213561 5.82225C-0.843282 7.8034 -1.05958 9.98372 -0.64291 12.0877L3.28089 11.3107C3.01783 9.98235 3.15439 8.60584 3.6733 7.35507L-0.0213561 5.82225ZM-0.64291 12.0877C-0.226244 14.1918 0.804687 16.1251 2.31963 17.6435L5.15125 14.8182C4.19481 13.8596 3.54395 12.639 3.28089 11.3107L-0.64291 12.0877ZM2.31963 17.6435C3.83458 19.1618 5.76557 20.1971 7.86865 20.6185L8.65455 16.6965C7.3268 16.4304 6.10769 15.7768 5.15125 14.8182L2.31963 17.6435ZM7.86865 20.6185C9.97173 21.0399 12.1525 20.8286 14.1355 20.0111L12.6111 16.313C11.3591 16.8291 9.9823 16.9626 8.65455 16.6965L7.86865 20.6185ZM14.1355 20.0111C16.1185 19.1937 17.8148 17.8068 19.0099 16.0258L15.6884 13.7969C14.9339 14.9214 13.863 15.7969 12.6111 16.313L14.1355 20.0111ZM19.0099 16.0258C20.2051 14.2447 20.8455 12.1494 20.8504 10.0045L16.8504 9.99549C16.8473 11.3496 16.443 12.6725 15.6884 13.7969L19.0099 16.0258ZM20.8504 10.0023C20.852 8.57611 20.5727 7.1636 20.0284 5.84539L16.3312 7.37195C16.675 8.20464 16.8514 9.09688 16.8504 9.99775L20.8504 10.0023ZM20.0284 5.84539C19.4841 4.52718 18.6855 3.32908 17.6782 2.3195L14.8466 5.14473C15.4829 5.78246 15.9873 6.53927 16.3312 7.37195L20.0284 5.84539ZM17.6782 2.3195C16.6709 1.30991 15.4746 0.508621 14.1576 -0.0386322L12.6227 3.65516C13.4546 4.00084 14.2103 4.507 14.8466 5.14473L17.6782 2.3195ZM14.1576 -0.0386322C12.8407 -0.585885 11.4288 -0.86838 10.0026 -0.869989L9.99812 3.13001C10.899 3.13102 11.7908 3.30947 12.6227 3.65516L14.1576 -0.0386322Z" fill="white" mask="url(#path-1-inside-1_994_14013)"/>
<mask id="path-3-inside-2_994_14013" fill="white">
<path d="M12.81 13.28C12.6768 13.2793 12.5486 13.2295 12.45 13.14L9.65 10.33C9.6044 10.2877 9.56765 10.2367 9.54191 10.18C9.51616 10.1234 9.50191 10.0622 9.5 10V4.37C9.5 4.23739 9.55268 4.11021 9.64645 4.01644C9.74021 3.92267 9.86739 3.87 10 3.87C10.1326 3.87 10.2598 3.92267 10.3536 4.01644C10.4473 4.11021 10.5 4.23739 10.5 4.37V9.77L13.16 12.43C13.2522 12.5251 13.3038 12.6525 13.3038 12.785C13.3038 12.9175 13.2522 13.0448 13.16 13.14C13.0639 13.2272 12.9397 13.2769 12.81 13.28Z"/>
</mask>
<path d="M12.81 13.28C12.6768 13.2793 12.5486 13.2295 12.45 13.14L9.65 10.33C9.6044 10.2877 9.56765 10.2367 9.54191 10.18C9.51616 10.1234 9.50191 10.0622 9.5 10V4.37C9.5 4.23739 9.55268 4.11021 9.64645 4.01644C9.74021 3.92267 9.86739 3.87 10 3.87C10.1326 3.87 10.2598 3.92267 10.3536 4.01644C10.4473 4.11021 10.5 4.23739 10.5 4.37V9.77L13.16 12.43C13.2522 12.5251 13.3038 12.6525 13.3038 12.785C13.3038 12.9175 13.2522 13.0448 13.16 13.14C13.0639 13.2272 12.9397 13.2769 12.81 13.28Z" fill="white"/>
<path d="M12.45 13.14L11.0333 14.5517L11.0689 14.5875L11.1064 14.6215L12.45 13.14ZM9.65 10.33L11.0667 8.9183L11.0393 8.89074L11.0108 8.86427L9.65 10.33ZM9.5 10H7.5V10.0307L7.50094 10.0615L9.5 10ZM10 3.87V1.87V3.87ZM10.5 9.77H8.5V10.5984L9.08579 11.1842L10.5 9.77ZM13.16 12.43L14.5959 11.0378L14.5852 11.0267L14.5742 11.0158L13.16 12.43ZM13.3038 12.785H11.3038H13.3038ZM13.16 13.14L14.5042 14.6209L14.5515 14.578L14.5959 14.5322L13.16 13.14ZM12.8203 11.28C13.1803 11.2819 13.5269 11.4167 13.7936 11.6585L11.1064 14.6215C11.5703 15.0422 12.1734 15.2767 12.7997 15.28L12.8203 11.28ZM13.8667 11.7283L11.0667 8.9183L8.23327 11.7417L11.0333 14.5517L13.8667 11.7283ZM11.0108 8.86427C11.1592 9.00209 11.2788 9.16802 11.3626 9.35243L7.72117 11.0076C7.8565 11.3054 8.04959 11.5732 8.28924 11.7957L11.0108 8.86427ZM11.3626 9.35243C11.4465 9.53685 11.4928 9.73607 11.4991 9.93853L7.50094 10.0615C7.51099 10.3883 7.58585 10.7099 7.72117 11.0076L11.3626 9.35243ZM11.5 10V4.37H7.5V10H11.5ZM11.5 4.37C11.5 4.76782 11.342 5.14935 11.0607 5.43066L8.23223 2.60223C7.76339 3.07107 7.5 3.70696 7.5 4.37H11.5ZM11.0607 5.43066C10.7794 5.71196 10.3978 5.87 10 5.87V1.87C9.33696 1.87 8.70107 2.13339 8.23223 2.60223L11.0607 5.43066ZM10 5.87C9.60218 5.87 9.22065 5.71196 8.93934 5.43066L11.7678 2.60223C11.2989 2.13339 10.663 1.87 10 1.87V5.87ZM8.93934 5.43066C8.65803 5.14935 8.5 4.76782 8.5 4.37H12.5C12.5 3.70696 12.2366 3.07107 11.7678 2.60223L8.93934 5.43066ZM8.5 4.37V9.77H12.5V4.37H8.5ZM9.08579 11.1842L11.7458 13.8442L14.5742 11.0158L11.9142 8.35578L9.08579 11.1842ZM11.7241 13.8222C11.4546 13.5442 11.3038 13.1722 11.3038 12.785H15.3038C15.3038 12.1327 15.0499 11.5061 14.5959 11.0378L11.7241 13.8222ZM11.3038 12.785C11.3038 12.3978 11.4546 12.0258 11.7241 11.7478L14.5959 14.5322C15.0499 14.0639 15.3038 13.4372 15.3038 12.785H11.3038ZM11.8158 11.6591C12.0755 11.4233 12.4114 11.289 12.7621 11.2806L12.8579 15.2794C13.468 15.2648 14.0524 15.031 14.5042 14.6209L11.8158 11.6591Z" fill="white" mask="url(#path-3-inside-2_994_14013)"/>
</svg>
