<svg width="24" height="24" viewBox="0 0 24 24" fill="none" xmlns="http://www.w3.org/2000/svg">
<path fill-rule="evenodd" clip-rule="evenodd" d="M5.58203 10.9763C5.58203 10.4744 5.95686 10.0676 6.41924 10.0676H13.1169C13.5793 10.0676 13.9541 10.4744 13.9541 10.9763C13.9541 11.4781 13.5793 11.8849 13.1169 11.8849H6.41924C5.95686 11.8849 5.58203 11.4781 5.58203 10.9763Z" fill="#9DC7F1"/>
<path fill-rule="evenodd" clip-rule="evenodd" d="M4.95627 1.81726C3.14145 1.81726 1.67442 3.40945 1.67442 5.37911V10.9763C1.67442 11.4781 1.29959 11.8849 0.837208 11.8849C0.374831 11.8849 0 11.4781 0 10.9763V5.37911C0 2.4058 2.21669 0 4.95627 0H11.2297C12.5374 0 13.7695 0.441926 14.6883 1.29717C15.619 2.1635 16.186 3.41801 16.186 4.91873C16.186 5.42055 15.8112 5.82736 15.3488 5.82736C14.8864 5.82736 14.5116 5.42055 14.5116 4.91873C14.5116 3.94796 14.1577 3.19743 13.5982 2.67658C13.0267 2.14464 12.1993 1.81726 11.2297 1.81726H4.95627Z" fill="#9DC7F1"/>
<path fill-rule="evenodd" clip-rule="evenodd" d="M5.30232 5.8274C3.29772 5.8274 1.67442 7.58919 1.67442 9.7648V18.2454C1.67442 20.421 3.29772 22.1828 5.30232 22.1828H16.4651C18.4697 22.1828 20.093 20.421 20.093 18.2454V17.3973H19.8921C18.5127 17.3973 17.1005 16.4764 16.7059 14.883L16.7047 14.8784L16.7048 14.8784C16.4038 13.6374 16.7615 12.4088 17.5272 11.6036C18.098 10.9731 18.88 10.6128 19.7246 10.6128H20.093V9.7648C20.093 7.6013 18.4585 5.8274 16.4651 5.8274H5.30232ZM0 9.7648C0 6.58554 2.37297 4.01013 5.30232 4.01013H16.4651C19.3833 4.01013 21.7674 6.59766 21.7674 9.7648V11.5214C21.7674 12.0233 21.3926 12.4301 20.9302 12.4301H19.7246C19.3239 12.4301 18.9713 12.5987 18.717 12.8823C18.7104 12.8896 18.7037 12.8968 18.697 12.9039C18.3538 13.2614 18.1802 13.8194 18.3234 14.4135C18.4878 15.0725 19.129 15.58 19.8921 15.58H20.9302C21.3926 15.58 21.7674 15.9868 21.7674 16.4887V18.2454C21.7674 21.4246 19.3944 24 16.4651 24H5.30232C2.37297 24 0 21.4246 0 18.2454V9.7648Z" fill="#9DC7F1"/>
<path fill-rule="evenodd" clip-rule="evenodd" d="M19.7242 12.4301C19.3235 12.4301 18.971 12.5987 18.7166 12.8823L18.7016 12.8986C18.4046 13.2132 18.2387 13.6612 18.2805 14.137L18.2814 14.1477L18.2814 14.1477C18.3404 14.917 19.022 15.58 19.8582 15.58H22.0126C22.1918 15.58 22.3252 15.4237 22.3252 15.2529V12.7572C22.3252 12.5863 22.1918 12.4301 22.0126 12.4301H19.7242ZM17.5244 11.6062C18.0954 10.9741 18.8784 10.6128 19.7242 10.6128H22.0126C23.1059 10.6128 23.9996 11.5711 23.9996 12.7572V15.2529C23.9996 16.4389 23.1059 17.3973 22.0126 17.3973H19.8582C18.2847 17.3973 16.7575 16.1486 16.6131 14.304C16.523 13.2594 16.8894 12.2836 17.5244 11.6062Z" fill="#9DC7F1"/>
</svg>
